<?xml version="1.0" encoding="UTF-8" standalone="no"?>
<!-- Created with Inkscape (http://www.inkscape.org/) -->

<svg
   version="1.1"
   id="svg1"
   width="2410.5349"
   height="510.79044"
   viewBox="0 0 2410.535 510.79044"
   xmlns="http://www.w3.org/2000/svg"
   xmlns:svg="http://www.w3.org/2000/svg">
  <defs
     id="defs1" />
  <g
     id="layer2"
     style="display:inline"
     transform="translate(-252.8499,-1421.7031)">
    <path
       id="path59-5"
       d="m 501.57998,1683.0581 c 0.82267,0.4388 1.33867,0.6399 1.63334,0.6764 -2.12534,-1.371 -4.14134,-2.2301 -5.23734,-2.614 1.58,0.9139 2.76134,1.5172 3.604,1.9376"
       fill="currentColor"
       style="fill-opacity:1;fill-rule:nonzero;stroke:none;stroke-width:0.156119" />
    <path
       id="path62-9"
       d="m 400.07065,1660.7564 c -0.364,0.2012 -0.68133,0.4023 -0.85466,0.6399 0.5,-0.2742 0.69866,-0.457 0.85466,-0.6399"
       fill="currentColor"
       style="fill-opacity:1;fill-rule:nonzero;stroke:none;stroke-width:0.156119" />
    <path
       id="path66-0"
       d="m 881.05864,1915.2879 c -0.85733,-1.3162 -1.616,-2.5227 -2.39333,-3.4733 -10e-4,0 -0.004,0 -0.005,0 1.85333,2.5958 3.58933,5.2646 5.15599,7.9518 -0.92933,-1.7549 -1.92266,-3.1441 -2.75733,-4.4785"
       fill="currentColor"
       style="fill-opacity:1;fill-rule:nonzero;stroke:none;stroke-width:0.156119" />
    <path
       id="path67-9"
       d="m 2642.0381,1810.0262 c 7.2933,-1.2248 20.4133,-3.4367 21.3467,-4.2044 -10.6667,2.1021 -11.76,-0.7496 -22.9334,1.7366 0.9334,-0.7678 2.8134,-2.3033 8.6934,-2.3765 -9.3467,-0.8591 -18.6134,0.092 -22.5867,-1.3526 7.88,0.7311 12.8267,-1.5173 14.4667,-1.9194 -7.04,0.018 -21.0267,1.4989 -25.7067,2.5957 -1.0933,-2.7238 -25.0267,2.0108 -19.2,-0.7678 -3.0533,0.9141 -11.4133,1.499 -16.12,1.2431 0.4533,-1.2979 14.08,-2.9797 19.88,-4.8625 27.3067,-3.3819 -0.4,2.1754 6.0133,2.6323 l 20.88,-1.7366 c -2.12,-0.2559 8.28,-2.6324 -5.3333,-1.4807 6.2533,-2.2849 19.3733,-4.4969 30.1733,-3.8753 2.44,-1.0237 -5.4,-0.3108 -7.8266,-0.2011 2.4,-1.0054 15.4533,-5.0271 -1.6667,-4.2776 4.8933,-0.2193 -8.2533,1.9925 0.5867,2.3399 -6.8267,0.8409 -25.44,0.9323 -18.16,-1.2064 -8.3067,1.1516 -23.88,3.3086 -30.7067,4.2591 -2.0133,-1.1881 5.84,-0.9871 9.24,-1.8462 l -23.9333,2.5043 6.9066,0.9506 c -17.6,0.2376 -28.6933,4.5334 -42.8,6.6173 1.8534,-2.4494 13.5867,-3.5097 22.8,-5.3559 -8.9733,-2.1572 -5.7866,1.8645 -20.48,2.5226 -1.9866,-0.2742 -2.5066,-0.8044 -1.5733,-1.5721 l -11.6,2.8699 c -2.7733,-0.018 -2.0533,-0.4387 -0.8933,-0.7311 -18.44,3.7657 1.0666,3.1076 -25.3467,6.069 16.2133,0 13.6667,-2.5959 27.2933,-3.3819 7.9334,1.0968 -15.4533,4.113 -19.36,5.3744 -12.7466,0.3838 -14.7066,-2.7421 -29.7866,-0.1646 9.0266,-1.7 -0.3467,-1.9742 15.4266,-3.1807 9.24,-1.8646 -4.9466,-0.6763 -6.9333,-1.8646 -4.36,0.7312 3.0267,2.2119 -9.2,2.7603 l 0.4667,-0.3839 -19.88,3.9485 c -18.6667,0.1097 -41.88,5.8314 -54.72,4.0582 l 3.04,2.2119 c -11.6934,1.0602 -28.3067,2.3398 -36.5867,3.4366 1.8667,-1.5355 9.6933,-2.2485 17.9733,-3.3269 -21.0533,1.0968 -39.52,3.9119 -53.6,6.8915 10.36,0.9871 11.8267,0.7495 21.64,1.2065 -13.5066,4.4056 -16.24,-0.9139 -33.76,2.0291 -0.5733,-2.3216 5.2934,-2.3946 0.8134,-4.3872 -7.2534,2.1387 -19.4934,2.6871 -27.7467,4.6797 -4.5067,-1.9742 3.2,-4.4968 21.2667,-6.0141 13.7866,1.0237 28.76,-3.6195 40.1066,-2.4861 l -6.9066,-0.9689 c 13.6666,-1.7 21.96,-1.8828 33.6133,-3.8388 l -0.4533,0.3839 5.76,-2.7968 -6.3334,0.4753 c 4.32,-1.6636 17.4,-4.7711 21.3067,-5.1185 -19.5467,1.7732 -20.8,5.6303 -29.9867,8.3905 -17.6133,1.1334 -24.6666,-2.5226 -36.2933,0.3291 -1,-1.042 -10.8533,-1.5172 -3.0533,-3.1259 9.7066,-1.3344 16.64,-0.3655 17.5333,-2.0473 -10.2667,0.8226 -6.3867,-0.4388 -22,0.9871 -2.8667,2.3033 -14.4667,5.1732 -25.5867,7.641 -11.6933,1.9742 -26.8533,2.998 -36.2,3.0346 11.7334,-1.042 23.36,-3.9121 20.3467,-5.2282 -6.7467,2.6507 -23.0267,-0.073 -19.4533,2.6689 -13.68,0.786 -36.6667,2.5227 -38.2534,0.055 12.9067,-1.8828 25.4934,-1.2248 36.4267,-2.5775 -3.0133,0.1645 -6,-0.2742 -4.2533,-1.0054 l 16.16,-0.8958 c -12.2534,-0.3655 -9.8667,-1.3892 -25.4934,0.037 0.9867,0.1275 2.9734,0.4021 1.4934,0.6399 -3.8934,0.2924 -8.7867,0.658 -12.72,0.9322 l -0.5734,-2.3216 c -11.6666,1.956 -34.3066,0.6032 -55.68,3.8936 l 1.9067,-0.6214 c -17.12,0.7495 -18.3733,5.5206 -36.92,7.4216 5.3333,-1.4989 2.8267,-2.3033 1.8267,-3.3452 -9.2134,1.8645 -14.2134,0.2742 -23.5333,0.329 10.8399,0.6033 -7.1867,3.0162 0.6666,3.2173 0.6267,2.3399 -18.4666,3.7292 -28.2533,4.1497 -5.96,-2.6324 30.2133,-3.8572 15.4,-5.9228 -9.76,0.4204 -12.1467,2.3398 -5.2533,2.3946 -12.2267,0.5484 -30.8134,1.5539 -39.72,0.3108 -14.5067,3.3635 -20.4134,2.5227 -29.5867,6.197 7.8133,-0.713 8.1867,-2.9066 18.04,-2.4312 l -10.6533,2.9978 c -14.1467,1.1882 -25.4934,0.055 -35.2667,0.4753 l 10.2133,-1.7183 -0.48,0.3839 c 3.88,-1.2613 17.0934,-1.6452 15.5334,-3.2173 -9.1734,2.7602 -16.6134,1.2795 -28.7467,3.6194 l 0.4667,-0.3838 c -21.4134,3.3086 -37.2934,-0.713 -50.76,4.6065 3.9066,-0.3656 11.8133,0.7312 9.4,1.7549 -4.96,-0.6947 -18.1067,0.6215 -17.6934,-0.6763 l 4.3867,-0.7313 c -12.2133,0.5484 -19.5733,0.8592 -23.9733,1.6087 -3.32,1.7732 0.1866,2.7054 -8.6,4.1861 -21.5467,0.585 8.6,-4.1861 -6.08,-4.4603 l -19.9734,3.0711 -4.4666,-1.0786 c -29.8267,0.7678 -52.6,7.0378 -84.3467,9.3411 -0.5867,-2.3215 22.32,-4.9721 30.12,-5.685 -9.8667,-1.371 -23.88,2.5042 -37.1333,2.0107 -12.2534,0.5302 -21.4134,3.2904 -19.4134,4.4786 -15.08,1.9377 -10.8133,-0.6214 -12.76,-0.8956 -4.8133,2.943 -23.88,3.4001 -36.04,4.8441 l -0.6133,-1.4076 -18.96,3.1808 c 4.9067,-0.201 0.5733,1.4258 0.6133,2.3398 l -4.88,0.2012 c 18.76,2.6323 41.8667,-5.8131 61.1334,-2.6872 -5.8267,0.9871 2.04,1.1881 -3.8134,2.157 -4.88,0.2194 -5.8666,0.073 -6.3866,-0.4387 -2.8934,1.3892 -10.64,3.0162 -0.3867,2.1936 -0.36,3.0893 -20.92,3.8206 -35.0133,5.8861 -11.32,-1.1333 11.6,-3.784 17.3733,-5.6485 -5.36,0.6032 -9.72,2.2484 -17.5467,2.0291 l 1.8267,-2.4312 c -19.4667,2.6689 -5.2533,2.3947 -9.5733,4.9538 -5.2,3.3088 -17.5734,1.1334 -22.9334,1.7367 l 5.8267,-0.9872 c -15.1733,0.1275 -18.4933,2.8151 -32.1467,3.6013 l -6.48,-1.3528 c 16.4934,1.0053 20.5067,-4.2227 29.4267,-4.2775 -22.6933,-0.4936 6.56,-5.1368 14.1467,-7.6046 -10.7467,1.2065 -20.5067,1.627 -26.4134,0.8044 -15.52,4.1312 -32.8133,1.2613 -47.76,5.9227 -8.32,0.1828 7.2267,-2.1388 -1.56,-1.5721 -16.12,0.8958 -33.2133,2.5592 -50.24,5.1185 -8.8266,0.5666 -7.36,-0.585 -9.8666,-1.371 -42.5734,1.7 -58.9334,8.3905 -105.4134,10.4378 l 6.7734,-1.7366 c -9.76,0.4205 -18.0934,0.6032 -22.8667,2.6323 -12.4267,-3.071 -41.44,5.4476 -57.24,2.3399 -20.5733,0.7312 -21.4,4.2045 -37.5067,6.0142 -0.027,-0.9141 4.8,-2.9431 -3.56,-2.7604 -13.1733,1.2613 -26.008,2.4678 -38.764,3.6927 -6.38,0.5666 -12.7386,1.1332 -19.108,1.7 -3.1853,0.2742 -6.372,0.5667 -9.5666,0.8409 -3.1307,0.2559 -6.232,0.4935 -9.36,0.6946 -12.4867,0.7312 -25.1093,0.8409 -37.9533,-0.1828 -12.816,-1.0968 -25.9187,-3.2538 -38.8387,-7.769 0.5027,-0.2011 3.136,0.4936 4.472,0.7494 -4.1853,-1.4441 -8.3387,-2.9247 -12.2987,-4.7527 -2.0226,-0.8226 -3.9226,-1.8829 -5.876,-2.7969 -1.8773,-1.0785 -3.804,-2.0474 -5.5933,-3.2355 -1.8573,-1.0604 -3.5613,-2.3581 -5.32,-3.5646 -1.6533,-1.3346 -3.3813,-2.5593 -4.9107,-4.04 -1.624,-1.3527 -3.0413,-2.9247 -4.536,-4.4238 -1.352,-1.6268 -2.792,-3.1623 -3.996,-4.9172 -1.3186,-1.6452 -2.3786,-3.5282 -3.5333,-5.3195 -1.008,-1.9012 -2.092,-3.7475 -2.9267,-5.7766 -0.968,-1.9194 -1.628,-4.0764 -2.432,-6.1237 -0.308,-1.0604 -0.6146,-2.1206 -0.92,-3.1625 l -0.468,-1.5721 -0.36,-1.6817 c -0.2413,-1.1152 -0.4826,-2.212 -0.7213,-3.327 -0.1787,-1.1517 -0.356,-2.3216 -0.532,-3.4732 -0.4093,-2.2668 -0.54,-4.7895 -0.8053,-7.1292 -0.3387,-4.9356 -0.5054,-9.8896 -0.452,-15.0262 -0.2987,-3.7475 -0.5294,-11.7542 -0.9387,-18.0424 -0.392,-6.3066 -1.0253,-10.8035 -1.4733,-6.8368 0.048,10.5111 -1.484,11.7358 -2.384,11.1325 -0.364,-9.8894 -0.5907,-16.0499 -0.7414,-20.1263 -0.064,-4.1861 -0.064,-6.3797 0.1227,-8.0981 0.088,-0.8774 0.164,-1.6452 0.252,-2.5226 0.039,-0.8957 0.053,-1.8828 -0.01,-3.2172 -0.1093,-2.6507 -0.492,-6.7271 -2.2973,-13.7284 -0.048,-2.4678 0.2906,-2.6688 0.88,-1.5356 0.2946,0.585 0.648,1.4807 1.0386,2.5959 0.396,1.0968 0.6947,2.4312 1.0707,3.8388 0.3533,1.4075 0.724,2.8882 1.0813,4.314 0.2934,1.4076 0.5867,2.7786 0.8734,3.9669 0.5946,2.3946 1.1,4.0398 1.5733,3.9301 -1.944,-13.911 -6.104,-28.7179 -12.876,-40.3624 -2.4347,-5.3559 -5.5293,-9.9991 -8.7307,-14.3132 -1.6866,-1.9925 -3.332,-4.0764 -5.088,-5.8496 -1.768,-1.7548 -3.4906,-3.6012 -5.3186,-5.0818 -7.2,-6.2884 -14.568,-10.6756 -21.3867,-14.5875 3.076,1.6269 3.7227,1.3344 4.868,1.4807 0.5733,0.073 1.272,0.2193 2.4547,0.8043 1.188,0.5301 2.8413,1.6452 5.292,3.5829 -1.5907,-0.8775 -0.62,-0.018 -2.2,-0.8957 5.84,3.7291 9.392,6.8732 11.9266,8.9389 1.2827,1.0054 2.2534,1.9377 3.112,2.6688 0.856,0.7496 1.5814,1.3528 2.2934,1.9378 1.4213,1.1699 2.7106,2.4494 4.8693,4.6614 1.06,1.1517 2.252,2.7054 3.768,4.6431 -2.2307,-3.1259 -4.6387,-6.1604 -7.24,-8.9206 -4.768,-5.0453 -9.992,-9.396 -15.2813,-12.9789 -5.3027,-3.5646 -10.668,-6.27 -15.7374,-8.5184 -2.5466,-0.9872 -5.0066,-2.1023 -7.376,-2.8335 -1.1826,-0.4205 -2.3386,-0.8044 -3.4626,-1.2065 -1.1267,-0.329 -2.2214,-0.6581 -3.2814,-0.9689 0.864,0.7496 0.4214,0.9689 -0.7933,0.8592 -1.216,-0.1462 -3.208,-0.4935 -5.4627,-0.8592 -4.508,-0.8042 -10.072,-1.3344 -12.468,-0.8408 l -1.0493,-0.3108 c -0.02,0.4205 -2.6467,0.6947 -5.6547,0.8958 -3.0066,0.2376 -6.3933,0.5484 -7.9773,0.7678 l -4.272,-2.3765 c -7.34,1.0785 2.1347,1.0603 -5.144,2.1936 -5.1573,0.914 -16.9027,3.1076 -27.488,6.7819 -1.3253,0.457 -2.6373,0.8957 -3.9187,1.3162 -1.2773,0.4753 -2.524,0.9505 -3.728,1.3892 -2.4213,0.841 -4.6333,1.8281 -6.59463,2.5227 -3.89334,1.5721 -6.68667,2.5592 -7.496,2.2668 -2.94267,1.7913 -5.33334,3.3269 -7.40667,4.9538 -1.032,0.786 -2.044,1.5173 -2.93733,2.2667 -0.884,0.7678 -1.74134,1.5173 -2.60267,2.2484 -1.72,1.4807 -3.45333,2.9614 -5.46933,4.5702 -2.01334,1.6086 -4.2,3.5462 -6.97867,5.685 0.59733,-1.2978 3.13333,-3.6926 3.41333,-4.3324 -11.89066,9.1218 -24.164,21.0404 -35.71733,33.16 -11.57467,12.1197 -22.55867,24.3308 -32.40933,34.0558 -7.56934,8.7744 -14.63467,16.5251 -21.00934,23.4349 -3.19333,3.4001 -6.21333,6.6175 -9.04,9.6337 -2.85199,2.8883 -5.47199,5.7033 -7.86133,8.3357 2.12934,-2.0109 6.41067,-5.6852 9.244,-7.8788 2.8,-2.3033 4.2,-2.9796 0.612,1.3894 -1.93467,2.4494 -4.65466,5.0453 -7.68533,7.8786 -3.07067,2.7238 -6.50533,5.5206 -9.87467,8.5002 0.572,-1.2065 -3.992,1.7733 -6.97066,3.6561 -0.74534,0.4569 -1.392,0.8592 -1.836,1.115 -0.44,0.2194 -0.68,0.2926 -0.61734,0.1645 0.12,-0.201 1.47467,-1.4074 4.87867,-4.1861 -0.57067,-0.018 -1.46267,0.3291 -2.588,0.9323 -1.12667,0.6033 -2.49067,1.4989 -3.96,2.3399 -1.47333,0.9139 -3.088,1.9743 -4.82933,2.943 -0.86134,0.5119 -1.73867,1.042 -2.62134,1.5721 -0.9,0.4936 -1.80533,0.9689 -2.70266,1.4625 -7.18667,3.9119 -14.28534,6.4345 -14.42534,4.9356 -1.63466,1.115 -7.83066,3.2172 -14.696,4.8076 -6.86533,1.6635 -14.37733,2.5592 -18.48,3.5097 -0.924,-0.6032 2.036,-1.0053 5.20667,-1.371 1.58533,-0.2558 3.224,-0.4935 4.46133,-0.7311 1.23734,-0.2376 2.06667,-0.5667 2.044,-0.7678 -3.29066,0.6033 -6.59866,1.0968 -9.91066,1.371 l -0.024,-0.8957 c -9.488,0.073 -15.05467,0.073 -19.73734,0.3107 -4.67733,0.2377 -8.46266,0.4571 -13.97066,-0.9505 l 0.47866,-0.2011 -3.72,-0.9872 -3.65866,-1.2429 c 1.50933,0.1645 2.97866,0.4021 4.47866,0.5118 l 4.484,0.2193 c -5.828,-1.5903 -10.192,-2.8699 -14.66666,-4.5151 -1.10534,-0.4571 -2.22134,-0.9323 -3.37067,-1.3894 -1.11333,-0.5848 -2.25866,-1.1881 -3.46,-1.8097 -2.35866,-1.3526 -4.86,-3.0527 -7.53733,-5.3743 -0.25867,-0.53 -0.48667,-1.0784 -0.70133,-1.6452 -1.04,-0.9323 -2.14267,-1.8097 -3.15867,-2.7969 -0.984,-1.0419 -2.00933,-2.029 -2.98933,-3.0892 0.99466,1.0785 1.5,1.1698 0.98933,0.2924 -3.11733,-2.413 -7.236,-8.1346 -10.09067,-14.8982 -1.46666,-3.3452 -2.62133,-6.9098 -3.628,-10.2186 -0.44933,-1.6634 -0.872,-3.2172 -1.256,-4.6248 -0.33066,-1.4258 -0.724,-2.7054 -1.024,-3.784 -0.096,-1.7366 -0.168,-3.3818 -0.005,-5.0453 0.0627,-0.8226 0.124,-1.6452 0.18667,-2.4678 0.108,-0.8226 0.21066,-1.6634 0.29733,-2.5044 0.38267,-3.3817 0.70267,-6.8915 0.65467,-11.5346 0.60666,0.7311 1.216,1.444 1.82666,2.1387 -0.27733,2.7054 -0.44,4.826 -0.504,6.5626 -0.132,1.7183 -0.10533,3.0345 -0.17066,4.0764 -0.11867,2.1022 -0.13067,3.1441 -0.256,4.2409 -0.112,1.0968 -0.0627,2.2302 0.0987,4.5153 0.33467,2.2484 0.74534,5.685 2.48934,11.0959 -0.556,-4.3872 -1.348,-10.4196 -1.344,-17.4391 -0.052,-7.0196 0.908,-15.0993 3.2,-23.6544 2.23733,-8.5734 5.92533,-17.5306 10.12,-26.0308 4.22533,-8.5002 8.992,-16.5435 13.43333,-23.5995 6.728,-11.9917 17.37733,-26.3781 26.92133,-39.5946 9.54933,-13.18 17.764,-25.6103 19.93067,-32.2095 l -0.72934,3.7109 c 9.14,-13.1616 18.14134,-27.1641 25.64134,-43.8173 4.43333,-10.8401 8.32266,-22.7952 10.408,-35.8106 1.052,-6.4711 1.652,-13.1616 1.71733,-19.8521 0.056,-6.6723 -0.48,-13.3079 -1.444,-19.6328 -0.93867,-6.3248 -2.48133,-12.3756 -4.24933,-18.1338 -1.00934,-2.7969 -1.948,-5.6302 -3.08134,-8.226 -1.16533,-2.5775 -2.24266,-5.2098 -3.55866,-7.5314 -5.016,-9.5422 -10.932,-16.9456 -16.72667,-22.4478 l -1.35867,-1.956 -1.41333,-1.8464 c -0.94933,-1.2064 -1.89333,-2.4678 -2.868,-3.6559 -6.544,-4.5701 -15.25067,-10.0723 -25.09467,-14.752 -9.84666,-4.6249 -20.8,-8.5368 -31.54533,-11.0228 -21.48933,-5.2099 -42.01466,-5.0089 -50.70133,-2.084 -7.48133,-0.5667 -6.38267,-1.1151 -3.19067,-1.7 3.18667,-0.6216 8.46267,-0.9871 9.22667,-1.4991 -5.55467,-0.3838 -12.984,0.4936 -20.292,1.5722 -3.68267,0.4935 -7.23067,1.1882 -10.56933,1.5537 -3.336,0.3657 -6.43067,0.4753 -9.068,0.1275 -0.0613,-0.8958 15.25866,-2.6507 8.316,-2.3765 -8.016,-0.7311 -11.21734,2.998 -20.27734,2.1754 2.044,0.6398 -1.47333,1.9012 -7.092,3.784 -5.628,1.7915 -13.38933,3.7839 -19.95466,5.1549 2.436,-0.3656 2.436,-0.3656 3.49333,-0.3656 2.056,0.9871 -7.78,2.3399 -13.072,4.0582 0,0 0.45467,-0.457 1.88,-0.9688 -8.38933,2.3764 -16.95466,4.57 -25.58266,7.1475 -8.58,2.8334 -17.28,5.7216 -26.06667,8.6465 -8.692,3.3817 -17.47067,6.8184 -26.30667,10.2551 -8.764,3.7656 -17.51333,7.8421 -26.332,11.7358 -35.03866,16.5799 -69.50399,37.145 -101.31333,60.1412 l 11.28534,-9.6152 c -4.404,3.7473 -10.704,8.3723 -16.55734,12.5401 -5.71466,4.5151 -11.01333,8.5002 -13.612,10.4013 l 1.24,-1.1699 c -4.39866,2.7786 -7.71333,5.2464 -10.41866,7.5313 -1.36667,1.0968 -2.53067,2.2669 -3.604,3.3819 -1.06534,1.1516 -2.05867,2.2118 -3.02534,3.2356 -3.84266,4.186 -7.21466,7.8787 -14.052,12.1562 l 2.33334,-2.4495 c -2.436,2.1753 -4.74934,4.2227 -6.96934,6.1787 -2.18266,2.0473 -4.27333,4.0215 -6.30133,5.9227 -4.10267,3.7291 -7.95333,7.2389 -11.78933,10.7303 -1.9,1.7732 -3.87734,3.4185 -5.716,5.3743 -1.86,1.9378 -3.73334,3.912 -5.64134,5.9776 -3.81466,4.1314 -7.77066,8.6283 -12.024,13.8197 -0.904,0.8958 -1.74533,1.7367 -2.52933,2.5227 -0.76133,0.8409 -1.46667,1.6087 -2.12533,2.3216 -1.32267,1.4259 -2.46534,2.6323 -3.48,3.6743 -2.02667,2.0839 -3.536,3.5098 -4.92134,4.7711 -2.77066,2.5409 -5.04533,4.442 -10.00399,9.6701 -1.98134,2.3399 -3.45467,4.7345 -4.76934,6.6905 -1.29066,1.9925 -2.32,3.7109 -3.12266,5.1367 -1.60667,2.8333 -2.312,4.5152 -2.41334,4.899 l 3.62,-4.7344 c 4.688,-4.1131 -7.08133,11.4798 -11.97866,19.1208 5.17066,-3.4914 5.18266,1.9742 21.108,-16.0316 2.53599,-3.857 4.77333,-6.2335 6.68533,-8.1529 1.92133,-1.901 3.592,-3.2538 5.31066,-4.6431 3.45734,-2.742 7.024,-5.7765 13.34934,-13.5638 2.996,-5.4474 8.04933,-10.2185 13.66133,-15.5563 1.39733,-1.3345 2.83067,-2.7237 4.296,-4.1313 0.72133,-0.713 1.45067,-1.4441 2.18667,-2.1753 0.752,-0.7129 1.51066,-1.4258 2.276,-2.1571 3.032,-2.9248 6.03866,-6.1603 8.86133,-9.8895 -5.688,8.5002 15.476,-13.8563 5.57467,-0.8957 1.468,-0.8958 3.81066,-3.1076 6.67066,-6.0324 2.95334,-2.742 6.45467,-6.1604 10.112,-9.7067 3.65867,-3.5646 7.47867,-7.2389 11.072,-10.4928 3.62267,-3.199 7.148,-5.6668 9.952,-7.3668 -1.51466,1.7915 -0.904,1.9376 -3.276,4.1861 7.05067,-6.4712 9.708,-8.1528 11.944,-9.3045 1.11867,-0.5668 2.13467,-1.0237 3.544,-1.8646 0.70534,-0.4204 1.50934,-0.9506 2.47467,-1.6452 0.95733,-0.7129 2.09333,-1.5355 3.49067,-2.5226 l -1.26,-1.7733 c 4.024,-3.7839 5.89733,-3.2538 9.588,-6.3979 -3.12267,1.9559 -9.90934,5.6119 -6.872,2.3033 4.956,-4.2227 9.004,-8.025 14.57733,-12.0648 0.36267,0.7494 -3.37733,3.9485 -5.89733,6.0872 0,0 3.032,-2.1387 6.21333,-4.2227 1.59067,-1.0603 3.21867,-2.0839 4.524,-2.8334 1.308,-0.7495 2.33067,-1.0968 2.62933,-1.0054 -2.1,1.7001 -4.44933,3.784 -6.776,5.7216 -2.312,1.9743 -4.536,3.9668 -6.20533,5.9228 16.004,-10.8218 1.524,-0.2376 9.82667,-4.1496 -1.52134,-0.4204 1.73333,-3.3269 6.62266,-6.398 4.85334,-3.1807 11.14934,-6.983 15.40534,-10.0906 1.24266,0.4388 -6.00267,4.2776 -7.908,6.4346 4.536,-1.5904 8.32666,-3.4183 11.812,-5.5023 0.86666,-0.5301 1.72,-1.0603 2.568,-1.5903 0.85733,-0.4936 1.70266,-0.9872 2.54133,-1.5173 1.67733,-1.042 3.332,-2.157 5.016,-3.3087 3.368,-2.3033 6.85733,-4.8077 10.888,-7.4582 2.01467,-1.3346 4.164,-2.7056 6.5,-4.0948 2.37733,-1.2431 4.944,-2.5044 7.748,-3.784 -0.35867,0.5484 -2.99867,2.1936 -4.33734,2.998 10.26534,-5.9411 18.11467,-7.2937 24.53067,-12.0284 10.236,-3.9485 2.58133,2.1572 18.13333,-4.6978 -2.6,-0.3657 2.016,-2.2303 7.24934,-4.4056 5.29333,-1.8828 11.22266,-3.9485 11.132,-5.5205 l 12.448,-2.742 c 5.19066,-2.8152 4.27466,-3.7109 4.64666,-4.9905 0.37734,-1.2613 2.084,-2.7603 12.692,-6.1421 19.49734,-4.8443 -1.044,5.4657 10.45467,3.5646 1.48667,-1.0054 2.96133,-2.1022 4.46533,-3.0345 l 9.64667,-1.1333 -1.42133,0.4936 c 5.61066,-1.9378 16.05066,-3.9851 16.17866,-3.1077 -0.848,0.9323 -7.00666,2.4312 -7.80533,3.327 2.29733,-0.9506 5.808,-1.7366 9.92133,-2.4862 4.128,-0.6032 8.88267,-0.9505 13.62267,-1.4989 4.744,-0.5301 9.48666,-1.1516 13.64266,-2.0473 2.07334,-0.4936 4.02267,-0.7861 5.74134,-1.2979 1.72133,-0.4936 3.22266,-1.0786 4.43066,-1.8097 5.68667,0.1462 17.272,-1.2248 15.864,0.4021 2.56267,-1.3893 8.71867,-1.7914 15.19734,-1.7183 6.48533,0.018 13.23866,0.6581 16.928,0.2011 -0.96934,0.6397 5.93866,2.1388 11.47066,2.3033 -3.66133,-0.841 -4.34533,-1.2249 -3.456,-1.5904 0.88934,-0.3656 3.33334,-0.5484 5.888,-0.7677 3.208,1.1332 9.40534,2.1752 15.04534,3.6559 5.65733,1.4076 10.71466,3.2904 11.84666,4.8991 4.928,0.9323 6.60134,0.7312 7.336,0.1828 0.74267,-0.5484 0.56133,-1.5355 1.79733,-1.956 2.984,1.8097 9.27467,4.9174 14.09334,8.0799 4.84533,3.1258 8.176,6.1969 6.21466,6.3979 -1.168,-0.8043 -2.69733,-1.8462 -4.30266,-2.943 -1.672,-0.9871 -3.40134,-2.0475 -4.98534,-2.8152 -1.592,-0.7494 -2.976,-1.3344 -3.856,-1.5538 -0.88933,-0.2011 -1.276,-0.018 -0.84666,0.6581 4.64533,2.7786 5.67733,3.1441 6.568,3.2722 0.448,0.073 0.85733,0.055 1.63866,0.2742 0.79334,0.2009 1.93467,0.6945 3.808,1.8097 -0.35733,0.055 0.79334,1.2247 1.77867,2.3763 0.96267,1.1883 1.792,2.3216 0.97867,2.2119 4.30533,2.5775 9.928,7.111 14.468,12.8326 -1.70267,-2.3398 -2.3,-3.2172 -2.16,-3.4001 0.14133,-0.1828 1.016,0.3474 1.9,1.0603 1.81866,1.4075 4.04,3.3087 1.98,0.2925 l -2.088,-1.6635 c -0.68934,-0.5484 -1.456,-1.0237 -2.17334,-1.5355 -0.736,-0.4936 -1.42933,-1.0237 -2.18666,-1.4807 l -2.26534,-1.371 c -5.12666,-4.1496 -5.67466,-4.7711 -5.21866,-5.0271 0.44,-0.2375 1.78933,0.037 -0.196,-1.7366 4.85733,3.3452 8.12666,5.8314 10.58933,7.8605 0.632,0.4752 1.21867,0.9323 1.772,1.371 0.536,0.4387 1.04,0.8591 1.52133,1.2613 0.94934,0.8043 1.91467,1.4441 2.736,2.2119 0.85334,0.7495 1.7,1.4807 2.61734,2.3033 0.876,0.8592 1.77466,1.8463 2.832,2.9979 1.016,1.2065 2.06933,2.6688 3.304,4.4237 0.56,0.9323 1.164,1.9378 1.81733,3.0162 0.67333,1.0786 1.20533,2.3948 1.89467,3.7292 0.42133,1.0968 0.76266,2.4861 1.16,3.912 0.2,0.7129 0.40666,1.4441 0.61466,2.1752 0.15734,0.7678 0.316,1.5173 0.47067,2.2668 0.72133,2.9066 1,5.7034 1.29467,6.983 -0.47867,-2.0291 -0.88934,-3.4184 -1.28667,-4.241 -0.444,-0.7861 -0.79733,-1.0603 -1.052,-0.9689 -0.50933,0.2194 -0.568,1.8828 -0.324,4.1679 2.20133,6.2152 2.46533,12.5401 1.79333,18.1703 -0.65466,5.7034 -2.096,10.8219 -3.48266,16.1962 1.232,-4.6249 1.70666,-5.6303 2.064,-5.0088 0.16266,0.3108 0.25733,1.042 0.30533,1.9378 0.016,0.8774 -0.0453,1.9376 -0.116,2.8881 -1.032,6.0508 -2.19467,9.7067 -2.90667,11.8273 -0.748,2.1387 -1.19333,2.7968 -1.488,2.9796 -0.636,0.3838 -0.784,-1.0054 -3.17466,3.7657 -3.62667,8.9389 -7.96667,16.8177 -12.36934,23.9834 -4.44933,7.1476 -8.972,13.6369 -13.49866,19.8887 -9.07734,12.5036 -18.08134,24.0931 -27.50933,38.5892 l 10.55866,-11.3336 1.916,-5.8497 c 8.056,-8.7378 1.31067,5.3379 -2.08,12.1197 -1.44,0.8409 -13.32666,18.1704 -9.152,10.511 -3.74933,5.7583 -7.49066,11.6261 -11.16666,17.6586 2.232,-1.9925 9.55333,-13.2347 4.67066,-4.57 -2.104,2.5226 -6.168,8.226 -8.83466,11.8819 -2.66134,3.6561 -4.004,5.1002 -0.704,-1.1698 -3.04,4.698 -6.304,10.4378 -8.47867,14.8982 -2.18667,4.4603 -3.312,7.5862 -2.31733,6.8002 -2.188,4.2592 -3.292,6.2334 -3.70934,6.6357 -0.41733,0.3839 -0.18133,-0.8775 0.468,-2.9066 1.264,-4.113 4.244,-11.1873 6.09734,-15.0994 -3.76,6.4347 -5.58934,9.1583 -6.34134,9.5606 -0.74,0.4203 -0.356,-1.4442 0.56934,-3.6743 -3.33067,6.3431 -6.51467,13.052 -9.38934,20.2725 1.53334,-4.9905 0.996,-5.4108 2.664,-10.2551 -3.42,6.526 -5.66666,12.9789 -7.60266,19.3769 -1.92934,6.4528 -3.584,12.796 -5.66134,19.9983 0.044,2.3947 0.08,4.7346 0.25867,7.1292 -0.52,2.998 -0.81333,5.9227 -1.10667,8.6283 -0.20533,2.742 -0.412,5.3195 -0.46,7.7324 -0.13466,4.8442 -0.009,9.0669 0.272,12.7778 0.52534,7.4765 1.53867,12.9605 2.68,18.1703 0.60934,2.5775 1.204,5.1184 2.088,7.8056 0.42534,1.3527 0.86267,2.742 1.32267,4.1862 0.47733,1.4441 1.09333,2.8881 1.69733,4.442 2.42934,6.1786 5.97734,13.5455 12.03467,21.8446 -1.08133,-2.2302 -2.19867,-4.3323 -3.16533,-6.6356 4.62666,6.1603 7.96666,9.8346 10.6,12.7595 1.33066,1.4441 2.46266,2.7602 3.54666,4.0033 1.09867,1.1881 2.14,2.3033 3.23467,3.4914 1.08533,1.2431 2.27333,2.3399 3.64133,3.6195 0.69067,0.6216 1.424,1.2797 2.21334,1.9926 0.80133,0.6581 1.67866,1.2978 2.63066,2.0107 0.95467,0.6947 1.98667,1.4807 3.124,2.212 1.14267,0.7129 2.38267,1.4441 3.73734,2.23 1.352,0.8044 2.832,1.4807 4.43866,2.2303 0.804,0.3838 1.64,0.7677 2.50933,1.1516 0.87334,0.329 1.78,0.6763 2.72267,1.042 8.528,3.0162 15.54533,4.2409 20.148,4.5699 4.604,0.2742 6.79733,-0.201 5.78,-1.4623 4.83733,0.201 7.76667,0.5484 10.044,0.9688 2.27733,0.4387 3.90133,1.0603 6.06667,1.4258 3.752,-0.5666 9.58266,-1.7913 15.872,-3.0893 6.28933,-1.3892 13.02133,-3.0528 18.83866,-3.9485 -7.68533,2.8151 -13.96666,4.5335 -21.38933,5.74 1.14533,1.0236 7.58133,0.4204 15.17733,-1.2979 7.604,-1.7001 16.296,-4.7893 22.336,-6.8368 4.02934,-2.2301 12.57467,-7.0744 21.36667,-14.1487 0.54933,-0.4388 1.10267,-0.8591 1.65733,-1.2978 l 1.56134,-1.371 c 1.03733,-0.9141 2.07866,-1.8281 3.11866,-2.7604 2.05734,-1.8646 4.18,-3.5829 6.09334,-5.5205 3.85066,-3.8206 7.54266,-7.2937 10.38666,-10.5293 -6.31467,3.4183 -5.084,-0.6947 5,-12.0466 -0.532,1.3528 3.21333,-1.7915 8.044,-6.1055 2.36533,-2.212 5.01067,-4.7162 7.52667,-7.0744 2.504,-2.3765 4.84,-4.6798 6.71733,-6.325 -2.85733,4.7895 17.08,-14.2584 2.55867,2.1206 -4.65334,4.0399 -7.43867,4.6614 -13.20534,11.3336 4.272,-2.5044 14.60667,-11.2422 24.784,-20.8758 -0.42666,1.3528 -5.04266,7.6045 -10.168,13.0519 2.528,-3.4549 0.708,-2.0656 0.0627,-2.0839 -17.50533,20.5285 5.32667,-1.5721 3.39333,2.6141 2.292,-2.7786 6.02,-6.8734 8.488,-9.7615 2.248,-2.6324 3.444,-4.2411 1.53334,-2.8153 5.31733,-3.8936 11.80533,-11.7174 18.28,-19.4316 3.35333,-4.0582 6.72266,-7.97 9.944,-11.4616 3.224,-3.4731 6.32,-6.3248 9.072,-8.2991 0.288,-0.6947 -5.93334,4.1679 0.56666,-3.3818 5.09867,-5.1184 7.616,-7.2023 9.45867,-8.2627 1.82933,-1.0968 2.932,-1.4074 5.192,-3.0162 0.668,-0.9322 2.16667,-2.4678 4.02533,-4.2043 1.85867,-1.7184 4.036,-3.8023 6.13467,-5.5388 4.21867,-3.3637 7.904,-6.1787 7.188,-5.3744 1.70267,-1.4442 1.98133,-1.9011 1.652,-2.1387 -0.34267,-0.1646 -1.31067,-0.073 -2.25067,0.1275 -0.93466,0.1645 -1.79333,0.2559 -1.81333,-0.2376 -0.0307,-0.4571 0.82667,-1.7367 3.19067,-3.6378 2.97066,-3.3635 7.15733,-5.7765 11.55463,-7.9153 4.4587,-2.0108 9.1654,-3.7109 13.52,-5.5022 2.7134,-0.5484 3.4374,-0.4023 2.9,-0.055 -0.2666,0.1827 -0.8453,0.4203 -1.6333,0.7493 -0.7827,0.3475 -1.776,0.7496 -2.8867,1.1883 -2.2333,0.8408 -4.8666,2.0657 -7.224,3.1441 -2.316,1.2065 -4.376,2.212 -5.3453,2.9798 9.3813,-5.155 19.336,-8.9208 29.4787,-11.2789 9.0906,-0.3839 -3.852,2.5593 -12.604,5.2647 6.0133,-1.2796 12.888,-2.742 18.708,-3.9668 5.824,-1.1882 10.624,-2.2302 12.42,-3.1807 3.8426,0.1097 6.76,0.2376 9.6173,0.4387 1.424,0.1462 2.8333,0.3107 4.3293,0.5118 1.484,0.2925 3.0547,0.6399 4.8067,1.0786 -3.5667,0.018 -5.272,0.8408 -7.4627,1.7 -1.0933,0.4388 -2.292,0.7678 -3.9133,1.1517 -1.6187,0.3473 -3.6347,0.53 -6.3733,0.7494 -9.0067,0.2559 -7.424,-0.3291 -5.4587,-1.1517 1.9573,-0.7677 4.2987,-1.7182 -3.5027,-1.3161 l -1.2173,2.1023 c -6.6987,-0.3108 -11.856,2.1752 -18.756,4.314 -1.972,0.3474 -1.792,0.1275 -0.7933,-0.3473 0.4986,-0.2194 1.2013,-0.5118 1.9386,-0.8044 0.744,-0.2558 1.524,-0.53 2.1694,-0.7677 -6.3227,1.7366 -11.952,3.5463 -17.0467,5.7948 -5.0733,2.3033 -9.588,5.1001 -13.52533,8.7744 3.96266,-1.9376 8.37203,-4.2958 13.07603,-6.2884 4.688,-2.0107 9.5453,-4.0033 14.228,-5.3559 9.3293,-2.9614 17.7493,-3.9121 21.5186,-3.1991 11.2774,-1.828 22.7534,-2.0107 33.748,0.1829 0.068,-0.4205 -2.696,-1.7733 -4.348,-2.8153 -0.8306,-0.4935 -1.368,-0.9322 -1.0906,-1.2247 0.276,-0.2559 1.3893,-0.4569 3.7986,-0.1275 0.8907,0.8409 2.192,1.5904 3.744,2.5775 1.568,0.9323 3.456,1.901 5.536,3.0893 4.1774,2.3033 9.2827,5.1916 14.4014,9.2497 -1.5227,-2.5226 2.984,-0.073 6.8626,3.1259 0.9374,0.8409 1.912,1.6086 2.7294,2.3581 0.7866,0.786 1.496,1.4441 2.044,1.9011 1.0906,0.8958 1.5413,0.9506 0.6693,-0.7494 -4.6427,-4.0217 -6.3053,-7.6046 -6.9133,-8.4272 2.5773,2.1022 3.7973,3.4001 4.5746,3.8389 0.7494,0.4935 0.9107,0.2924 0.9334,-0.037 0.021,-0.3472 -0.095,-0.8042 0.1213,-0.8774 0.108,-0.018 0.3027,0.055 0.6333,0.2926 0.312,0.2924 0.7547,0.7494 1.3854,1.4807 0.5106,0.6397 0.9866,1.2247 1.4346,1.7731 0.436,0.5666 0.7894,1.1334 1.1467,1.6452 0.6947,1.0419 1.32,1.9011 1.7907,2.6871 0.8973,1.627 1.4706,2.7054 1.82,3.4184 0.6786,1.4442 0.4306,1.499 0.2506,1.4806 -0.1973,-0.018 -0.408,-0.018 0.12,1.4443 0.5014,1.4623 1.952,4.2409 3.8307,10.6206 -1.2133,-2.4495 -3.4773,-6.5991 -6.7173,-10.8766 -3.248,-4.2775 -7.596,-8.5917 -12.4947,-12.3024 0.1267,0.7311 2.4573,2.7784 4.8573,5.5571 2.5094,2.6689 4.752,6.3796 5.7587,9.012 -1.5613,-3.5646 -0.576,-2.8882 0.492,-1.9194 0.5333,0.4935 1.096,1.0237 1.288,1.1151 0.2067,0.092 0.1813,-0.3838 -0.6,-1.8097 2.5773,3.985 4.8907,8.5185 6.7507,13.7283 1.8613,5.1732 3.1573,11.2971 4.068,18.1703 0.9053,6.8916 1.352,14.551 1.6493,22.7404 0.308,8.2078 0.464,16.9639 1.0547,26.2136 -0.3894,-0.6947 -0.7574,-2.1936 -1.0587,-4.2227 -0.3147,-2.0291 -0.628,-4.6614 -0.836,-7.4948 -0.4813,-5.7947 -0.7253,-12.5218 -1.084,-18.4994 -0.6653,-11.9734 -2.096,-20.3823 -3.3373,-15.6294 0.1506,1.7915 0.3066,3.3634 0.464,4.7711 0.124,1.4624 0.244,2.742 0.3706,3.8936 0.268,2.3947 0.476,4.2227 0.672,5.9776 0.208,1.7549 0.38,3.4915 0.4907,5.6119 0.057,1.0603 0.1,2.1936 0.1253,3.5098 0.027,1.3527 0.035,2.8334 0.02,4.5517 -0.7106,5.8314 -0.8466,16.3972 0.7067,29.6503 0.1507,1.627 0.4667,3.3635 0.7267,5.0819 0.2986,1.7183 0.504,3.4365 0.9026,5.2098 0.7614,3.5462 1.4974,7.1292 2.6054,10.6755 0.9533,3.6194 2.2373,6.983 3.4466,10.3283 0.644,1.6452 1.3627,3.2355 2.0347,4.8259 0.344,0.786 0.6853,1.572 1.0253,2.3581 0.3734,0.7494 0.7454,1.4807 1.1147,2.2301 -0.372,-0.9323 -0.7653,-1.8462 -1.1107,-2.7968 l -0.9826,-2.87 c -0.6414,-1.9194 -1.3174,-3.8022 -1.8107,-5.7948 0.2427,0.585 0.4987,1.2065 0.7667,1.8463 0.2893,0.6215 0.592,1.2796 0.9053,1.9561 0.6107,1.3526 1.2627,2.815 1.9453,4.3323 1.4947,2.9065 3.0134,6.197 4.8347,9.1948 1.716,3.1259 3.6907,5.9776 5.536,8.7013 1.9307,2.5775 3.7547,5.0636 5.4747,6.9281 l -2.016,-1.6086 3.54,3.4732 c 1.1786,1.1516 2.4146,2.1205 3.62,3.1625 1.0533,1.1334 1.2613,1.4807 1.1853,1.5721 4.1293,3.0893 11.2227,8.7378 19.5133,13.3078 8.2734,4.6066 17.6334,8.3175 25.6934,10.3099 0.1266,-0.9139 -3.824,-1.9924 -8.764,-3.6376 -4.9347,-1.627 -10.884,-3.784 -14.644,-5.9594 -0.984,-0.6763 -5.0667,-3.272 -7.9134,-5.5571 -2.844,-2.3215 -4.488,-3.9851 -0.86,-2.2666 2.368,1.6452 4.708,2.8881 6.972,4.1678 2.284,1.115 4.5027,2.2849 6.7094,3.1441 2.2013,0.9323 4.3706,1.7915 6.5413,2.4861 2.1653,0.7861 4.3293,1.3893 6.5107,2.0108 8.7266,2.4496 17.748,4.04 28.8266,5.8131 -2.336,-0.585 -4.6666,-1.0968 -6.996,-1.7549 7.152,0.092 16.6174,2.0108 27.1347,2.5226 9.5173,1.0786 6.0173,1.5173 1.5413,1.9377 -4.4706,0.3839 -9.9306,0.4935 -4.124,1.4624 -3.804,0.5484 -9,0.037 -13.508,-0.5301 -4.508,-0.5118 -8.3333,-1.0968 -9.4506,-0.1097 4,1.5355 8.0266,2.9613 12.068,4.2593 10.324,-0.3291 21.4559,2.3581 28.5999,1.9925 -2.5466,-0.3656 -5.096,-0.8043 -7.6386,-1.2248 1.5346,-1.8828 8.5813,-0.329 12.156,-0.1096 l -5.116,-2.8335 c -11.0187,-0.5849 -18.732,1.4076 -26.7667,-1.115 2.4787,0.1645 4.5734,0.2193 6.388,0.2011 1.8174,0.018 3.3547,-0.037 4.7147,-0.1463 2.7227,-0.1645 4.7467,-0.4387 6.888,-0.7312 4.284,-0.5667 9.0573,-0.9322 20.776,-1.3161 1.0746,1.0968 -4.5107,0.5484 -6.9427,1.4075 4.016,0.329 8.136,-0.1646 12.8533,-0.7678 2.36,-0.2924 4.8694,-0.6215 7.5987,-0.8774 2.7213,-0.2742 5.5867,-0.457 8.78,-0.457 -7.1493,1.2431 -19.24,3.1077 -9.6387,4.0399 l 6.776,-2.6507 c 5.872,-0.073 3.5027,0.9323 5.908,0.8226 8.352,-0.1827 -2.0053,-2.0839 11.1867,-2.486 1.9773,0.2742 6.368,0.457 4.468,1.0786 15.1373,-1.0238 7.2507,-1.2249 21.352,-3.2904 -12.6627,0.9139 -13.2773,-2.3217 -0.1333,-3.6195 18.5733,-1.0055 31.16,-3.7291 44.0133,-1.956 l 8.2533,-1.9925 c -5.2533,2.413 11.7734,-0.1463 17.6667,-0.2377 2.04,2.0839 -27.8533,1.956 -27.7067,5.5754 12.2134,-0.5301 6.9334,0.9689 3.04,2.2119 13.2,-1.2978 4.7867,-2.9248 10.5734,-4.8076 0.053,0.9139 22.5066,-1.3527 14.7866,1.1699 11.2267,-0.6947 13.08,-3.1259 21.3734,-3.3086 -1.2134,0.9871 -2.6,2.23 -1.7734,3.3086 0.96,-0.8226 11.6,-0.6581 13.6667,-0.7495 -1.96,-0.2742 3.8133,-2.157 -5.92,-0.8226 2.36,-1.9194 22.9733,-1.7365 22.3733,-3.1624 1.0934,1.9377 21.04,-1.1152 31.32,-1.0237 -1.1866,-4.6614 -18.9333,3.199 -22.5333,-0.457 13.5867,-2.5958 45.9067,-3.4733 67.8133,-7.1658 19.0534,-0.4753 0.067,1.8097 4.0267,3.2722 -17.52,2.0473 -21.9867,0.9687 -37.12,2.9065 16.6667,-0.3839 43.9867,-2.8517 56.12,-5.1916 18.1067,-1.5173 20.28,3.2722 42.2133,0.4936 -2.9866,-1.3162 -2.5066,-1.7001 -9.4,-1.7731 5.84,-0.9689 12.72,-0.9141 19.0534,-1.371 3.84,-1.2614 -9.84,-0.4754 -1.08,-1.956 3.44,0.037 10.76,-0.2742 9.36,0.8592 l -1.4534,0.2558 c 20.9334,-2.9248 15.32,2.5775 33.2534,-1.6452 -1.4934,-0.6581 -5.3734,0.585 -9.8,0.4205 -3.4534,-0.9323 7.6666,-3.4001 16,-4.4969 -1.4534,1.1516 7.32,-0.3291 13.1733,-0.4205 4,1.4625 -14.6267,1.5721 -17.5067,2.9614 l 16.1467,-0.8957 -3.4133,-0.037 17.4933,-2.943 c -12.2133,1.4441 -5.96,-1.7184 -0.6,-2.3217 12.2133,-0.5484 24.4533,-1.0784 23.0667,0.9689 1.3866,-2.0473 16.5333,-3.071 27.2666,-4.2775 -11.76,0.1463 -1.5466,-1.5721 1.8267,-2.4496 l 17.68,0.6765 c -18.5467,1.901 3.9733,1.4623 -0.3333,3.1075 -5.2667,2.3947 -16.56,2.1753 -26.36,2.6141 19.24,2.2118 26.7866,-3.9119 43.48,-3.3819 0.04,0.8958 -1.3867,2.0475 -8.7067,2.3765 2.9467,0.4021 15.0667,-2.8334 26.36,-2.6141 -2.9733,-0.4205 -9.4,-1.7549 1.7733,-3.327 l 14.7734,1.1517 c 17.12,-0.7494 5.7466,-2.7969 19.84,-4.8625 l -9.32,-0.8592 c 1.3733,-2.0473 19.04,-1.371 19.4266,-3.5646 -8.7866,0.5667 -13.6266,2.5958 -22.88,2.6324 -3.5466,-1.828 11.6667,-1.9561 16.92,-3.4732 19.1334,-0.4753 15.2,-0.1097 29.48,0.53 0.64,3.2174 -23.28,5.7218 -20.0933,9.7616 18.52,-1.9194 45.3467,-4.899 57.5867,-4.5334 16.5733,-2.1936 14.9733,-4.6432 12.4533,-6.3614 6.8533,-0.841 10.24,-0.8044 14.6667,-0.6399 l -7.7467,1.6086 c 20.4667,-2.5226 32.12,-4.4969 53.6533,-5.9776 12.1334,-1.444 7.1734,-3.0526 4.1867,-4.3688 l 13.1733,-1.2979 -2.0133,-0.2742 c 2.8667,-2.3033 14.6133,-2.4496 23.4,-3.0162 0.067,0.8956 -5.3067,1.4989 -4.7867,2.0108 7.8267,0.201 19.56,-0.8592 25.8534,-2.2302 0.053,0.914 -5.2134,3.3086 -14.52,3.3635 -1,-0.1462 -0.52,-0.5118 -1.4934,-0.6581 l -15.6,2.3217 c 18.0267,-2.4314 28.88,-0.9141 28.5067,1.2795 18.0267,-2.4312 -14.7867,-1.1699 6.68,-3.5646 28.52,2.1754 53.6933,-5.0819 69.6133,-0.1645 13.1067,-2.2119 28.6534,-5.4474 49.16,-7.0562 -0.067,-1.8279 13.68,-1.7 11.6,-3.7839 -19.6667,-0.9505 -36.4666,6.1421 -52.2933,3.9485 -8.7333,1.4624 -5.72,2.7786 -9.6133,4.0399 -7.7734,0.6947 -15.12,1.0237 -16.1734,-0.018 18.0267,-2.4314 4.68,-4.7347 27.6267,-6.4712 -2.9733,-1.3161 -21.5467,0.5849 -29.84,0.7678 2.4,-1.0055 -0.12,-1.7915 -5.52,-2.1023 5.8267,-1.8828 18.9067,-4.0946 25.7067,-5.8495 -2.3867,1.0236 2.0533,1.1881 0.093,1.8097 l 23.8267,-4.2959 c 7.3866,0.5668 9.4266,1.7549 5.5333,2.998 13.24,-0.4021 35.56,-4.4603 35.72,-1.7549 17.0666,-1.6635 -5.48,-1.2065 -6.9734,-1.8646 l 1.4667,-0.2376 -18.0667,1.5172 c -2.1066,-2.9796 20.5734,-0.7312 23.3334,-3.9301 2.6266,-5.9045 25.52,-0.037 38.1466,-1.8646 l -14.4666,5.1732 12.68,-1.828 c -7.2534,2.1204 -7.1334,4.8442 -18.2667,7.3303 17.56,-1.1517 42.56,-1.7183 53.7867,-3.2905 4.44,1.0786 6.4266,2.2669 4.5466,3.784 17.48,-3.857 27.4134,-0.6581 42.5867,-1.7 16.0133,-2.6872 -16.2267,-0.9139 -4.6,-3.784 4.3733,0.6216 11.8267,-0.4752 16.48,-1.243 -6.2667,0.8227 -21.4667,0.713 -32.2,0.8591 8.8,-0.5666 7.7467,-2.5226 10.16,-3.528 l -14.7067,0.6399 c 0.8667,-2.5593 18.0534,-1.5173 24.8267,-3.254 -4.2533,2.541 -1.8533,2.4314 -6.12,4.9722 12.6667,-1.8279 31.72,-3.1989 42.5467,-2.614 6.3866,0.457 -5.3067,1.5172 -8.72,2.3947 2.9866,1.3161 12.6533,-1.828 15.1733,-0.1275 -1.8933,1.5355 -7.7867,0.6945 -12.1867,1.4441 l 37.16,-1.9925 c 0.04,0.8957 -9.2133,1.8462 -15.08,1.9194 11.2934,0.2193 19.5467,-0.8592 32.6,-4.8808 12.7334,-0.018 27.4267,0.2376 23.1467,1.8828 5.8267,-0.9871 1.8933,-1.5355 1.8133,-2.4496 17.1467,-0.7494 18.92,-4.0946 29.16,-4.899 l -7.84,-1.0968 c 16.6534,0.5302 3.7467,-3.071 18.4534,-2.8151 -2.32,1.9195 -1.28,3.8571 1.2533,5.5571 2.36,-1.9011 11.72,-1.0602 18.0667,-1.5173 -4.0134,-1.4623 13.5733,-2.5957 3.2533,-3.5828 14.6267,-2.4678 21.5333,-0.585 32.1867,-3.6012 -6.8267,-0.055 12.6133,-2.7236 6.6666,-3.5462 14.2,-1.1701 24.04,0.2009 20.2534,2.3763 -4.9067,0.2011 -12.7867,0.018 -12.1867,1.4259 l 25.84,-2.2119 c 6.44,0.4387 14.72,0.2376 15.8267,2.1936 8.1866,-2.9065 24.48,-0.1829 30.7066,-3.3636 -8.7066,2.3947 -15.68,0.5302 -19.0533,0.4936 l 3.9867,-0.6764 c -0.5734,0.037 -1.2267,0.055 -2.08,0.037 l 11.04,-4.2776 c -10.8,-0.6032 -1.8267,2.4312 -17.0134,3.455 -13.2933,-2.3033 29.6,-7.0928 15.8134,-8.1164 -11.2534,-0.2377 -9.1734,2.7603 -18.3867,4.6066 l 2.4267,-0.092 -20.9334,2.9066 c -1.0266,-1.042 5.2934,-2.413 5.2934,-2.413 -25.4267,1.8463 -29.4267,0.4021 -56.8,1.9742 2,0.2742 7.5066,3.2904 -4.68,4.7345 -8.72,1.4625 -9.8267,-0.4752 -17.1334,-0.1645 4.3467,-0.7129 8.2,-2.8881 14.0934,-2.0655 l -0.56,-2.3217 c 20.3733,-4.3324 9.5333,-5.8495 37.3333,-8.7196 1.2,-1.8279 21.3333,-4.1861 36.4933,-4.7711 l -7.4,-1.0236 c 15.4934,-4.1314 3.04,2.2119 22.96,-1.7549 8.44,2.5409 23.7867,5.1184 12.6667,8.5003 14.2133,-0.2742 18.9867,-2.2851 31.7333,-3.1991 7.92,1.9926 -3.8,3.0528 -2.2266,5.5206 9.3066,-0.9505 20.96,-2.9065 14.0133,-3.8754 l 17.68,-0.2376 c 0.4933,0.5118 -5.8267,0.9689 -8.3067,1.0968 6.8934,0.055 20.0134,-2.157 23.8534,-3.4183 -1.44,0.2558 -5.8534,0.9871 -7.7867,0.7129"
       fill="currentColor"
       style="fill-opacity:1;fill-rule:nonzero;stroke:none;stroke-width:0.156119" />
  </g>
</svg>
