<?xml version="1.0" encoding="UTF-8" standalone="no"?>
<!-- Created with Inkscape (http://www.inkscape.org/) -->

<svg
   width="42.399582mm"
   height="35.419254mm"
   viewBox="0 0 42.399582 35.419254"
   version="1.1"
   id="svg1"
   xmlns:inkscape="http://www.inkscape.org/namespaces/inkscape"
   xmlns:sodipodi="http://sodipodi.sourceforge.net/DTD/sodipodi-0.dtd"
   xmlns="http://www.w3.org/2000/svg"
   xmlns:svg="http://www.w3.org/2000/svg">
  <sodipodi:namedview
     id="namedview1"
     pagecolor="#ffffff"
     bordercolor="#000000"
     borderopacity="0.25"
     inkscape:showpageshadow="2"
     inkscape:pageopacity="0.0"
     inkscape:pagecheckerboard="0"
     inkscape:deskcolor="#d1d1d1"
     inkscape:document-units="mm" />
  <defs
     id="defs1" />
  <g
     inkscape:label="Layer 1"
     inkscape:groupmode="layer"
     id="layer1"
     transform="translate(-82.380693,-79.980657)">
    <path
       id="path31"
       d="m 96.131176,89.961162 c -0.787155,1.124174 -1.574073,2.24801 -2.361047,3.371925 5.373655,4.568708 11.129161,8.598763 17.260511,12.085943 0.78697,-1.12392 1.57389,-2.24775 2.36105,-3.37193 -5.37453,-4.568021 -11.12937,-8.598401 -17.260514,-12.085938"
       style="fill:#2b2b29;fill-opacity:1;fill-rule:nonzero;stroke:none;stroke-width:0.0345507" />
    <path
       id="path32"
       d="m 96.078329,90.592533 c -0.427365,0.610341 -0.640824,0.915192 -1.068442,1.525895 5.519483,3.992294 11.098623,7.899352 16.737573,11.719772 0.42762,-0.6107 0.64108,-0.91555 1.06844,-1.52589 -5.32176,-4.273415 -10.90095,-8.181019 -16.737571,-11.719777"
       style="fill:#ffffff;fill-opacity:1;fill-rule:nonzero;stroke:none;stroke-width:0.0345507" />
    <path
       id="path33"
       d="m 108.09935,101.75071 c 1.18568,0.81488 2.37376,1.62692 3.5652,2.43418 l 1.06879,-1.52639 c -0.82266,-0.65993 -1.65158,-1.31034 -2.48596,-1.95294 -0.66696,0.43539 -1.38603,0.78954 -2.14803,1.04516"
       style="fill:#2b2b29;fill-opacity:1;fill-rule:nonzero;stroke:none;stroke-width:0.0345507" />
    <path
       id="path34"
       d="m 109.5997,102.49707 c -0.007,-0.11883 -0.015,-0.2378 -0.0227,-0.35749 0.11145,-0.0314 0.2228,-0.0632 0.33437,-0.0948 0.008,0.11914 0.0154,0.23832 0.024,0.35753 -0.11174,0.0318 -0.22376,0.0628 -0.33562,0.0948 z m -0.53869,-0.38968 c -0.008,-0.11866 -0.0148,-0.23739 -0.0224,-0.35611 0.11213,-0.0323 0.22344,-0.0642 0.33553,-0.0965 0.007,0.11891 0.0152,0.238 0.0231,0.35693 -0.11226,0.032 -0.22458,0.0634 -0.33623,0.0957 z m -0.54038,-0.38668 c -0.008,-0.11859 -0.0144,-0.23794 -0.0215,-0.35627 0.11246,-0.0328 0.22442,-0.0656 0.33651,-0.0979 0.007,0.11891 0.0147,0.23813 0.0225,0.35729 -0.11248,0.0323 -0.22518,0.0642 -0.33749,0.0969 z m -0.53981,-0.38628 c -0.007,-0.11892 -0.0142,-0.23774 -0.0209,-0.35704 0.11245,-0.0328 0.22494,-0.0657 0.33743,-0.0986 0.007,0.11947 0.0145,0.23848 0.0213,0.35777 -0.1123,0.0326 -0.22502,0.0652 -0.33777,0.0978 z m -0.54038,-0.38546 c -0.007,-0.11898 -0.0136,-0.23787 -0.0207,-0.35683 0.11291,-0.0335 0.22624,-0.0669 0.33915,-0.0998 0.007,0.11868 0.014,0.23793 0.0212,0.35723 -0.11327,0.0334 -0.22657,0.0662 -0.3397,0.0994 z m -0.54148,-0.3839 c -0.007,-0.11893 -0.013,-0.23819 -0.02,-0.35717 0.11346,-0.0343 0.22686,-0.0678 0.34054,-0.10183 0.007,0.11948 0.0134,0.23885 0.0204,0.35837 -0.11349,0.0338 -0.22734,0.0673 -0.34099,0.10063 z m -0.54062,-0.38331 c -0.007,-0.11956 -0.0132,-0.239156 -0.0199,-0.359212 0.11325,-0.03393 0.22674,-0.06827 0.34026,-0.102015 0.007,0.119707 0.0133,0.239602 0.02,0.359657 -0.11349,0.0338 -0.22676,0.0677 -0.34037,0.10157 z m -0.54175,-0.384105 c -0.006,-0.119855 -0.0133,-0.239608 -0.0197,-0.359468 0.11394,-0.0344 0.22761,-0.06891 0.34166,-0.102797 0.006,0.119445 0.0128,0.239714 0.0193,0.359343 z m -0.54205,-0.384308 -0.0193,-0.358803 c 0.11419,-0.03458 0.22792,-0.06874 0.34198,-0.10325 l 0.0194,0.359229 c -0.11412,0.03415 -0.22797,0.0682 -0.34209,0.102824 z m -0.54176,-0.382886 c -0.007,-0.119707 -0.013,-0.239376 -0.0197,-0.358893 0.11425,-0.03466 0.22816,-0.06908 0.34177,-0.103563 l 0.0194,0.35923 c -0.11375,0.03465 -0.2279,0.06871 -0.34152,0.103226 z m -0.54291,-0.382469 c -0.007,-0.119617 -0.0135,-0.239347 -0.0197,-0.358774 0.11388,-0.03432 0.22822,-0.06916 0.34221,-0.103592 0.007,0.11956 0.0133,0.238946 0.0197,0.358807 -0.11388,0.03432 -0.22806,0.06894 -0.34218,0.103559 z m -0.54429,-0.381112 c -0.006,-0.11956 -0.0132,-0.239147 -0.0197,-0.358775 0.11435,-0.03447 0.22901,-0.0691 0.34345,-0.103562 0.007,0.119322 0.0131,0.238648 0.0197,0.358277 -0.11419,0.03458 -0.22873,0.0693 -0.34339,0.10406 z m -0.54378,-0.38121 c -0.007,-0.118749 -0.0132,-0.237912 -0.0202,-0.356863 0.11463,-0.03487 0.22926,-0.06945 0.34368,-0.103867 0.007,0.118748 0.0132,0.237875 0.0197,0.356968 -0.11435,0.03447 -0.22901,0.0691 -0.34317,0.103762 z m -0.54509,-0.379356 c -0.007,-0.118748 -0.0132,-0.23788 -0.0201,-0.356974 0.11474,-0.03502 0.22969,-0.06944 0.3445,-0.104424 0.006,0.119068 0.0132,0.23788 0.0197,0.356959 -0.11463,0.03487 -0.22948,0.06978 -0.34407,0.104439 z m -0.54537,-0.378335 c -0.007,-0.118987 -0.0135,-0.238082 -0.0205,-0.356528 0.11496,-0.03534 0.22991,-0.06978 0.34472,-0.104765 0.007,0.118986 0.0132,0.23788 0.0197,0.356978 -0.1146,0.03465 -0.22925,0.06943 -0.34399,0.104315 z m -0.54566,-0.378537 c -0.007,-0.118904 -0.0135,-0.237458 -0.0202,-0.356239 0.1146,-0.03465 0.22967,-0.06944 0.34405,-0.104394 l 0.0205,0.355896 c -0.11482,0.03496 -0.22919,0.06995 -0.34428,0.104737 z m -0.54652,-0.377912 c -0.007,-0.118176 -0.0137,-0.236579 -0.0207,-0.35492 0.115,-0.03471 0.22995,-0.06924 0.34455,-0.103918 0.007,0.118192 0.014,0.236779 0.0208,0.354832 -0.11474,0.03502 -0.22991,0.06978 -0.34462,0.104006 z m -0.54539,-0.377124 c -0.007,-0.118191 -0.0147,-0.236407 -0.0215,-0.354435 0.11435,-0.03447 0.22886,-0.06888 0.34374,-0.103361 0.007,0.118019 0.0139,0.236283 0.0208,0.354303 -0.11449,0.03449 -0.22859,0.06908 -0.34301,0.103493 z M 99.828399,95.61607 c -0.0072,-0.117462 -0.01536,-0.234803 -0.02258,-0.352263 0.114125,-0.03415 0.228921,-0.06838 0.343101,-0.10246 0.007,0.117143 0.0149,0.234807 0.0218,0.352212 -0.11412,0.03415 -0.228087,0.0684 -0.342297,0.102511 z m -0.54703,-0.375954 c -0.0076,-0.116897 -0.01574,-0.234273 -0.02334,-0.3512 0.114676,-0.03424 0.229038,-0.06792 0.343474,-0.10237 0.0076,0.117471 0.01524,0.234384 0.02267,0.351528 -0.114125,0.03415 -0.228481,0.06834 -0.342804,0.102042 z m -0.547613,-0.375141 c -0.0075,-0.11657 -0.01625,-0.232953 -0.02414,-0.350081 0.114286,-0.03368 0.22882,-0.06761 0.343154,-0.101285 0.0082,0.116594 0.01608,0.233164 0.0234,0.349896 -0.113874,0.03361 -0.228333,0.06812 -0.342416,0.10147 z m -0.547621,-0.375147 c -0.0081,-0.116185 -0.01677,-0.232189 -0.0251,-0.348665 0.114417,-0.03334 0.228709,-0.06684 0.342876,-0.100313 0.008,0.116422 0.01633,0.232211 0.02404,0.348385 -0.113786,0.03366 -0.227857,0.06744 -0.341815,0.100593 z m -0.550718,-0.373129 c -0.0085,-0.115701 -0.01706,-0.23176 -0.02567,-0.34725 0.114859,-0.03328 0.229509,-0.06678 0.344406,-0.100076 0.0081,0.115693 0.01645,0.231458 0.02474,0.346772 -0.114613,0.03345 -0.228949,0.06718 -0.343484,0.100554 z m 14.559563,9.132031 c -0.002,-0.023 -0.004,-0.0458 -0.005,-0.0685 -0.003,-0.0406 -0.049,-0.0566 -0.0879,-0.0464 -0.0556,0.0148 -0.0788,0.0761 -0.0745,0.13372 0.004,0.0568 0.009,0.11402 0.0131,0.17077 -0.10995,0.0292 -0.21956,0.0598 -0.32959,0.0898 -0.009,-0.11787 -0.0176,-0.2364 -0.0258,-0.35426 0.0628,-0.0172 0.12548,-0.035 0.18818,-0.052 0.0458,-0.0123 0.0704,-0.0601 0.067,-0.10793 -0.003,-0.0464 -0.0498,-0.076 -0.0947,-0.064 -0.0577,0.0158 -0.11531,0.032 -0.17352,0.048 -0.005,-0.068 -0.01,-0.13633 -0.015,-0.20441 -0.003,-0.0422 -0.0473,-0.0663 -0.0884,-0.0548 -0.0471,0.0127 -0.0803,0.0553 -0.0776,0.10381 0.005,0.067 0.0102,0.13384 0.0147,0.20124 -0.10993,0.0304 -0.21922,0.0606 -0.32911,0.091 -0.009,-0.11828 -0.0174,-0.23672 -0.026,-0.35467 0.0629,-0.0178 0.12518,-0.0353 0.18785,-0.0527 0.0463,-0.013 0.0714,-0.0608 0.0676,-0.10872 -0.003,-0.0466 -0.0503,-0.076 -0.0955,-0.0634 -0.0579,0.0161 -0.11509,0.0324 -0.17295,0.0484 -0.005,-0.0648 -0.01,-0.12966 -0.014,-0.19434 -0.003,-0.0447 -0.0457,-0.077 -0.0891,-0.0647 -0.0478,0.0132 -0.0814,0.0563 -0.0786,0.10528 0.005,0.0667 0.0102,0.13381 0.0149,0.2009 -0.11051,0.0307 -0.22122,0.0616 -0.3315,0.0926 -0.008,-0.11868 -0.0166,-0.2373 -0.0248,-0.35633 0.0629,-0.0178 0.12518,-0.0353 0.18807,-0.053 0.0466,-0.0127 0.0724,-0.0604 0.0692,-0.10924 -0.003,-0.0469 -0.0508,-0.0759 -0.0956,-0.0634 -0.0579,0.0162 -0.11568,0.0327 -0.17357,0.0493 -0.004,-0.0647 -0.009,-0.12952 -0.0135,-0.19449 -0.003,-0.0452 -0.0456,-0.0776 -0.0897,-0.0651 -0.0482,0.013 -0.0816,0.0566 -0.0792,0.10615 0.004,0.0669 0.009,0.13374 0.014,0.20103 -0.11055,0.0313 -0.22133,0.0624 -0.33208,0.094 -0.008,-0.11907 -0.0163,-0.23836 -0.024,-0.35753 0.0625,-0.0178 0.12427,-0.0359 0.18743,-0.0533 0.047,-0.0132 0.0736,-0.0608 0.071,-0.11007 -0.003,-0.0469 -0.0517,-0.0752 -0.0976,-0.0623 -0.0576,0.0162 -0.11543,0.0329 -0.17329,0.0495 -0.004,-0.0646 -0.009,-0.12929 -0.0131,-0.19388 -0.003,-0.0454 -0.0456,-0.0784 -0.0891,-0.0659 -0.0481,0.0136 -0.0816,0.0582 -0.0785,0.10863 0.004,0.0662 0.009,0.13229 0.0132,0.19852 l -0.33368,0.0956 c -0.008,-0.11933 -0.0158,-0.2384 -0.0233,-0.35737 0.0625,-0.0178 0.12498,-0.0362 0.18782,-0.0538 0.0473,-0.0136 0.0747,-0.0606 0.0723,-0.11019 -0.003,-0.047 -0.0519,-0.0754 -0.0975,-0.0623 -0.0581,0.0163 -0.11583,0.0334 -0.17367,0.05 -0.005,-0.0644 -0.009,-0.12907 -0.0127,-0.19315 -0.003,-0.0456 -0.0455,-0.0792 -0.0897,-0.0663 -0.0485,0.0134 -0.0822,0.0586 -0.079,0.10928 0.004,0.0665 0.009,0.13229 0.0126,0.19877 -0.11174,0.0318 -0.22328,0.0639 -0.3351,0.0965 -0.008,-0.11932 -0.015,-0.23834 -0.0221,-0.35783 0.0625,-0.0178 0.12569,-0.0366 0.1882,-0.0544 0.048,-0.0134 0.0753,-0.0615 0.0726,-0.11071 -0.003,-0.0477 -0.0525,-0.0758 -0.0986,-0.062 -0.0579,0.0162 -0.11558,0.0336 -0.17367,0.05 -0.004,-0.0643 -0.008,-0.12826 -0.0117,-0.19278 -0.003,-0.0457 -0.0462,-0.0793 -0.09,-0.0665 -0.049,0.0136 -0.0823,0.0594 -0.0795,0.11006 0.004,0.0663 0.008,0.13221 0.0122,0.19815 -0.11235,0.0327 -0.22429,0.0654 -0.33639,0.0977 -0.007,-0.11891 -0.0145,-0.23847 -0.0217,-0.35712 0.0634,-0.0185 0.12615,-0.0372 0.18931,-0.0554 0.0481,-0.0136 0.076,-0.0619 0.0725,-0.11219 -0.003,-0.0477 -0.0532,-0.0753 -0.0989,-0.0622 -0.0581,0.0169 -0.11589,0.0342 -0.174,0.0511 l -0.0114,-0.19269 c -0.003,-0.0455 -0.0459,-0.0803 -0.0897,-0.0675 -0.0491,0.0151 -0.0826,0.061 -0.0797,0.11205 l 0.012,0.19774 c -0.11245,0.0328 -0.22493,0.0657 -0.33756,0.0988 -0.007,-0.11929 -0.0143,-0.23867 -0.0211,-0.35799 0.0635,-0.0185 0.12656,-0.0373 0.18971,-0.056 0.0481,-0.0136 0.0764,-0.0619 0.0734,-0.11181 -0.003,-0.048 -0.0536,-0.0748 -0.0998,-0.0616 -0.0579,0.0173 -0.11611,0.0345 -0.1737,0.0513 -0.004,-0.0637 -0.008,-0.12792 -0.0115,-0.19194 -0.002,-0.0461 -0.0457,-0.08065 -0.0899,-0.0677 -0.0495,0.0144 -0.0828,0.0607 -0.0797,0.11205 0.003,0.0661 0.008,0.13223 0.0117,0.1982 -0.11318,0.0332 -0.22622,0.0669 -0.33893,0.10013 -0.007,-0.11947 -0.0136,-0.23915 -0.0207,-0.35867 0.0634,-0.0185 0.12694,-0.0378 0.1901,-0.0565 0.0481,-0.01426 0.0768,-0.06242 0.074,-0.112601 -0.003,-0.04814 -0.0538,-0.07502 -0.0998,-0.06156 -0.0578,0.01711 -0.11619,0.03448 -0.17432,0.05214 l -0.0108,-0.192266 c -0.003,-0.04637 -0.0459,-0.08112 -0.0902,-0.06794 -0.0495,0.01444 -0.083,0.061 -0.08,0.113088 0.004,0.06606 0.007,0.131796 0.0116,0.197753 -0.11355,0.03384 -0.22687,0.06784 -0.34011,0.101786 -0.007,-0.120199 -0.0135,-0.239877 -0.0203,-0.360362 0.0636,-0.01885 0.12662,-0.03805 0.19085,-0.05698 0.0485,-0.0142 0.0771,-0.06219 0.0742,-0.112936 -0.003,-0.04829 -0.054,-0.0747 -0.0998,-0.06157 -0.0585,0.01744 -0.11666,0.03533 -0.17499,0.05252 -0.003,-0.06364 -0.007,-0.128143 -0.0107,-0.191753 -0.002,-0.04638 -0.0458,-0.0812 -0.0902,-0.06795 -0.0497,0.01467 -0.0832,0.06176 -0.0804,0.113654 0.004,0.0658 0.007,0.131829 0.011,0.197378 -0.11347,0.03425 -0.22671,0.06824 -0.34018,0.102533 -0.007,-0.119789 -0.0134,-0.240114 -0.0199,-0.359743 0.0635,-0.01926 0.12675,-0.03876 0.19035,-0.0575 0.0484,-0.01475 0.0778,-0.06266 0.0746,-0.113583 -0.003,-0.04797 -0.0542,-0.07438 -0.10064,-0.06095 -0.0581,0.01711 -0.1165,0.0351 -0.17471,0.05271 -0.003,-0.06421 -0.007,-0.127691 -0.0105,-0.191567 -0.003,-0.04629 -0.0459,-0.08161 -0.0905,-0.06813 -0.0504,0.015 -0.0835,0.06229 -0.0805,0.114408 0.004,0.06556 0.007,0.13086 0.0107,0.196732 -0.11374,0.03394 -0.22741,0.0686 -0.34132,0.102917 l -0.0195,-0.359031 c 0.0638,-0.01909 0.1277,-0.03889 0.19154,-0.05797 0.0487,-0.01452 0.0776,-0.06283 0.0746,-0.113472 -0.002,-0.04844 -0.0543,-0.07452 -0.10036,-0.06075 -0.059,0.0176 -0.11722,0.03542 -0.1762,0.053 -0.003,-0.06404 -0.007,-0.127518 -0.0102,-0.191352 -0.002,-0.04621 -0.0454,-0.08176 -0.0905,-0.06814 -0.0496,0.01522 -0.0829,0.06275 -0.0802,0.114585 0.004,0.06556 0.007,0.13109 0.0109,0.196415 -0.11435,0.03446 -0.22805,0.06894 -0.3425,0.103391 -0.006,-0.119797 -0.0127,-0.239169 -0.0189,-0.359365 0.0634,-0.01902 0.12693,-0.0383 0.1906,-0.05782 0.0487,-0.01452 0.0783,-0.06267 0.0756,-0.113241 -0.002,-0.04861 -0.0547,-0.07437 -0.10064,-0.06095 l -0.17537,0.05304 c -0.003,-0.06364 -0.007,-0.127289 -0.0106,-0.190791 -0.002,-0.04646 -0.046,-0.08208 -0.0905,-0.06813 -0.0499,0.01548 -0.0832,0.063 -0.0807,0.115255 0.004,0.06524 0.007,0.130525 0.0108,0.195343 l -0.34227,0.103709 c -0.006,-0.119855 -0.0129,-0.238983 -0.0193,-0.358841 0.0638,-0.01958 0.12732,-0.03886 0.19134,-0.05827 0.0487,-0.01452 0.0781,-0.06236 0.0756,-0.113241 -0.003,-0.04798 -0.055,-0.07405 -0.10121,-0.06012 -0.0587,0.01777 -0.11719,0.03592 -0.17561,0.05338 -0.004,-0.06348 -0.007,-0.126946 -0.0107,-0.190562 -0.003,-0.04653 -0.0462,-0.08184 -0.0905,-0.06814 -0.0504,0.015 -0.0838,0.06261 -0.0806,0.115151 0.003,0.06534 0.007,0.130073 0.0109,0.19523 -0.11427,0.03487 -0.22849,0.06897 -0.34287,0.103925 -0.007,-0.11956 -0.0132,-0.239152 -0.0198,-0.358669 0.0641,-0.01935 0.12789,-0.03846 0.19207,-0.05811 0.0487,-0.01452 0.0783,-0.06268 0.0756,-0.113233 -0.003,-0.04829 -0.0551,-0.07381 -0.10122,-0.06013 -0.0587,0.01798 -0.11776,0.03551 -0.17605,0.05341 -0.004,-0.0634 -0.007,-0.126646 -0.0107,-0.190063 -0.003,-0.04653 -0.0459,-0.08161 -0.0905,-0.06814 -0.0504,0.015 -0.0834,0.06287 -0.0806,0.115151 0.004,0.06502 0.007,0.130122 0.0108,0.194723 -0.11451,0.0347 -0.22886,0.0695 -0.34351,0.104265 -0.006,-0.119068 -0.013,-0.23819 -0.0195,-0.357314 0.064,-0.01927 0.12851,-0.03882 0.19271,-0.05844 0.0487,-0.01493 0.078,-0.0629 0.0748,-0.113813 -0.003,-0.04838 -0.055,-0.07405 -0.10122,-0.06013 -0.0588,0.01792 -0.11816,0.03608 -0.17671,0.05375 -0.004,-0.06332 -0.007,-0.126622 -0.0108,-0.189928 -0.003,-0.04675 -0.0462,-0.08184 -0.0905,-0.06814 -0.0503,0.01555 -0.0837,0.0632 -0.0806,0.115687 l 0.0107,0.194182 c -0.11457,0.03478 -0.22925,0.06944 -0.34406,0.104431 -0.006,-0.119306 -0.013,-0.238216 -0.0195,-0.357333 0.064,-0.01927 0.12819,-0.03888 0.19273,-0.05844 0.0483,-0.01516 0.078,-0.0629 0.0748,-0.113807 -0.003,-0.04797 -0.0548,-0.07358 -0.10094,-0.05993 -0.0588,0.01793 -0.11794,0.03576 -0.1767,0.05374 -0.004,-0.06308 -0.007,-0.126408 -0.0109,-0.189185 -0.003,-0.04661 -0.0461,-0.082 -0.0908,-0.06834 -0.0501,0.01523 -0.0835,0.06286 -0.0803,0.115357 0.004,0.06429 0.007,0.129136 0.0106,0.193781 -0.11457,0.03514 -0.22939,0.06964 -0.3442,0.104631 l -0.0197,-0.357003 c 0.0645,-0.01942 0.12875,-0.03917 0.1934,-0.0588 0.0485,-0.01469 0.0778,-0.06217 0.0744,-0.113248 -0.003,-0.04838 -0.0548,-0.07358 -0.10093,-0.05993 -0.0592,0.01799 -0.11783,0.0356 -0.17716,0.05377 -0.004,-0.06316 -0.007,-0.1259 -0.0106,-0.188978 -0.003,-0.04661 -0.0466,-0.08128 -0.0914,-0.06752 -0.0501,0.01523 -0.0834,0.06276 -0.0801,0.115017 0.004,0.06428 0.007,0.129128 0.0108,0.193451 -0.11507,0.03479 -0.22992,0.06977 -0.34473,0.10476 -0.007,-0.118749 -0.0136,-0.237346 -0.0205,-0.355905 0.0647,-0.01979 0.12964,-0.03921 0.19434,-0.05893 0.0486,-0.01436 0.0773,-0.06251 0.0744,-0.113272 -0.003,-0.04782 -0.0548,-0.07358 -0.10116,-0.05899 -0.0594,0.01752 -0.11874,0.03568 -0.17847,0.05382 -0.003,-0.06309 -0.007,-0.125982 -0.0105,-0.18909 -0.003,-0.04634 -0.0468,-0.08096 -0.0914,-0.06752 -0.0502,0.01531 -0.0833,0.06261 -0.0802,0.114585 0.004,0.06478 0.007,0.129128 0.0109,0.193949 -0.11484,0.03447 -0.22969,0.06947 -0.34464,0.104038 l -0.0203,-0.354936 c 0.065,-0.01956 0.1298,-0.03876 0.19448,-0.05855 0.0482,-0.01492 0.0773,-0.06244 0.0742,-0.112937 -0.003,-0.04774 -0.0546,-0.07382 -0.10065,-0.05973 -0.0593,0.01815 -0.11913,0.03624 -0.17847,0.05385 -0.004,-0.06253 -0.007,-0.12545 -0.0111,-0.188231 -0.003,-0.04666 -0.0464,-0.08081 -0.0911,-0.06732 -0.0502,0.01531 -0.0834,0.06207 -0.0804,0.114178 0.004,0.06404 0.007,0.128458 0.0112,0.192893 -0.11474,0.03502 -0.2302,0.06958 -0.34529,0.10437 -0.007,-0.118339 -0.0136,-0.236154 -0.0204,-0.354206 0.065,-0.01956 0.12994,-0.03896 0.1949,-0.05854 0.0482,-0.0145 0.077,-0.06196 0.0737,-0.112147 -0.003,-0.04797 -0.0546,-0.07341 -0.10065,-0.05973 -0.0598,0.01808 -0.11913,0.03571 -0.17874,0.05363 -0.004,-0.06253 -0.007,-0.125278 -0.0108,-0.187993 -0.003,-0.04619 -0.047,-0.08001 -0.0914,-0.06631 -0.0499,0.01491 -0.0834,0.06156 -0.0804,0.113655 0.004,0.06397 0.008,0.127808 0.0114,0.192007 -0.11467,0.03424 -0.22966,0.06881 -0.34438,0.103069 -0.007,-0.117446 -0.014,-0.23489 -0.0215,-0.35204 0.0651,-0.0198 0.13075,-0.03888 0.19571,-0.05847 0.0478,-0.01435 0.0762,-0.06204 0.0732,-0.1115 -0.003,-0.04758 -0.0546,-0.07341 -0.10037,-0.05954 -0.0598,0.01808 -0.11962,0.03573 -0.17948,0.05348 -0.004,-0.06238 -0.008,-0.124918 -0.0112,-0.187458 -0.003,-0.04618 -0.0472,-0.07969 -0.0914,-0.0663 -0.0497,0.01467 -0.0836,0.06111 -0.08,0.11258 0.004,0.06388 0.008,0.128035 0.0121,0.192327 l -0.343927,0.102401 c -0.0073,-0.117299 -0.01495,-0.234191 -0.02239,-0.351341 0.06475,-0.01924 0.130051,-0.03859 0.195331,-0.05795 0.04722,-0.01427 0.07544,-0.06171 0.07221,-0.111851 -0.003,-0.04742 -0.05423,-0.07318 -0.100068,-0.05933 -0.05992,0.01775 -0.119717,0.03533 -0.179489,0.05347 -0.0039,-0.06221 -0.0076,-0.124803 -0.01194,-0.187013 -0.0029,-0.04618 -0.04715,-0.07928 -0.0911,-0.06611 -0.04944,0.01498 -0.08343,0.06091 -0.07974,0.112171 0.0045,0.06389 0.0082,0.127359 0.01247,0.191113 -0.114453,0.03392 -0.229211,0.06817 -0.343752,0.102175 -0.0077,-0.116741 -0.01528,-0.233118 -0.02304,-0.349821 0.06516,-0.01931 0.130374,-0.03835 0.195766,-0.05794 0.04706,-0.01403 0.0748,-0.06133 0.07122,-0.110437 -0.0032,-0.04742 -0.05382,-0.07325 -0.09893,-0.05975 -0.06014,0.01807 -0.120045,0.0351 -0.180138,0.05319 -0.0044,-0.06229 -0.0079,-0.124352 -0.01224,-0.186589 -0.0033,-0.04598 -0.04776,-0.07841 -0.0921,-0.06529 -0.04874,0.01452 -0.08274,0.05993 -0.07902,0.111651 0.0046,0.06316 0.0082,0.127048 0.01269,0.190186 -0.114348,0.03447 -0.228945,0.0678 -0.343277,0.101497 -0.008,-0.115849 -0.01591,-0.232216 -0.02425,-0.348068 0.06571,-0.0194 0.131087,-0.03815 0.196323,-0.05755 0.04706,-0.01403 0.07458,-0.06101 0.07083,-0.109879 -0.0032,-0.04742 -0.05349,-0.07302 -0.09893,-0.05975 -0.06014,0.01807 -0.120124,0.03522 -0.180402,0.05296 -0.0044,-0.06221 -0.0081,-0.124033 -0.01278,-0.186432 -0.0033,-0.04562 -0.04783,-0.07762 -0.09167,-0.06468 -0.04874,0.01452 -0.0828,0.06001 -0.07889,0.110958 0.0046,0.06316 0.0086,0.126482 0.01337,0.18982 l -0.342954,0.100426 c -0.0085,-0.115702 -0.01652,-0.231346 -0.02482,-0.34666 0.06522,-0.01939 0.130936,-0.03793 0.196461,-0.05712 0.04648,-0.01372 0.07329,-0.06108 0.06941,-0.109583 -0.0036,-0.04686 -0.05335,-0.07339 -0.09808,-0.06037 -0.06041,0.01776 -0.120618,0.0347 -0.180677,0.05215 -0.0044,-0.0615 -0.0085,-0.123468 -0.0131,-0.185361 -0.0037,-0.04542 -0.04845,-0.07674 -0.09185,-0.0638 -0.04841,0.01475 -0.08246,0.05953 -0.07825,0.110048 0.005,0.06261 0.0091,0.125843 0.01353,0.188967 -0.114417,0.03334 -0.229272,0.06646 -0.34365,0.09961 l -0.02541,-0.344599 c 0.06587,-0.01893 0.131846,-0.03766 0.197991,-0.05688 0.04625,-0.0134 0.07256,-0.06074 0.06864,-0.108481 -0.0038,-0.04654 -0.053,-0.07267 -0.09751,-0.05998 -0.0606,0.01751 -0.121019,0.03475 -0.18148,0.05208 -0.0048,-0.06173 -0.0089,-0.123697 -0.01338,-0.185547 -0.0037,-0.04507 -0.04843,-0.07554 -0.09189,-0.06316 -0.04779,0.01386 -0.0823,0.05809 -0.0781,0.108058 0.005,0.06318 0.009,0.126261 0.01405,0.189455 -0.114084,0.03287 -0.228897,0.06592 -0.343171,0.09831 -0.0086,-0.114342 -0.01736,-0.228319 -0.0263,-0.342744 0.06612,-0.01876 0.132253,-0.03755 0.198562,-0.05649 0.04576,-0.0134 0.07138,-0.06027 0.06802,-0.107603 -0.0038,-0.04646 -0.05242,-0.07298 -0.09722,-0.05977 -0.0606,0.01751 -0.121728,0.03472 -0.182263,0.05199 -0.0049,-0.06206 -0.0093,-0.123558 -0.01412,-0.185726 -0.0036,-0.04452 -0.04853,-0.07418 -0.09185,-0.062 -0.04733,0.01372 -0.08199,0.05712 -0.07792,0.106049 0.005,0.06318 0.0097,0.126474 0.0146,0.189882 -0.114245,0.0324 -0.228561,0.06481 -0.34233,0.09709 -0.0093,-0.113941 -0.01834,-0.227538 -0.02756,-0.341527 0.06628,-0.019 0.132966,-0.03734 0.199128,-0.0561 0.04542,-0.01291 0.07052,-0.05956 0.06618,-0.106716 -0.0041,-0.04614 -0.05198,-0.07291 -0.09608,-0.0602 -0.06109,0.01752 -0.121741,0.03387 -0.182758,0.05148 -0.005,-0.0619 -0.0097,-0.122993 -0.01472,-0.184856 -0.0038,-0.04498 -0.04869,-0.07394 -0.09157,-0.0618 -0.04716,0.01348 -0.0817,0.05602 -0.07763,0.105634 0.0055,0.06246 0.0099,0.125647 0.01518,0.188436 -0.114131,0.03224 -0.228187,0.06428 -0.342313,0.09647 -0.0089,-0.113292 -0.0183,-0.226369 -0.02801,-0.339077 0.06683,-0.01909 0.133449,-0.03734 0.200069,-0.05622 0.04507,-0.01293 0.06911,-0.05948 0.06461,-0.106221 -0.0043,-0.04533 -0.05141,-0.07251 -0.095,-0.06054 -0.06109,0.01752 -0.122383,0.03426 -0.183704,0.05163 -0.0053,-0.0615 -0.01011,-0.12364 -0.01554,-0.184915 -0.0035,-0.04446 -0.04868,-0.07274 -0.09157,-0.06058 -0.04683,0.01371 -0.08181,0.05512 -0.07744,0.103624 0.0056,0.06301 0.0105,0.126049 0.01576,0.188838 -0.113605,0.03201 -0.227504,0.06391 -0.341177,0.09546 -0.0096,-0.112826 -0.0192,-0.225706 -0.02899,-0.338288 0.05364,-0.01489 0.107611,-0.02955 0.161489,-0.04473 0.05593,-0.01519 0.107513,-0.05731 0.102203,-0.115102 -0.0048,-0.05069 -0.06405,-0.0691 -0.113363,-0.05547 -0.05276,0.01467 -0.10546,0.02892 -0.157951,0.0433 -0.0027,4.1e-4 -0.0044,0.0029 -0.0072,0.0033 1.62e-4,-2.31e-4 7.9e-5,-7.41e-4 -3.7e-5,-0.0012 -0.0047,-0.04957 -0.0625,-0.08456 -0.09066,-0.04434 -0.02526,0.03607 -0.04253,0.07643 -0.05406,0.118344 -0.03014,0.02195 -0.06012,0.04472 -0.08178,0.07566 -0.02777,0.03966 0.025,0.08007 0.07213,0.06715 1.56e-4,-2.24e-4 4.51e-4,-1.7e-5 6.86e-4,-3.52e-4 0.01014,0.113309 0.01968,0.226208 0.02962,0.339197 -0.09158,0.02531 -0.182461,0.05106 -0.273213,0.07651 l 0.178108,0.124712 c 0.03651,-0.01047 0.07271,-0.02033 0.10974,-0.03067 0.0031,0.03845 0.0066,0.07649 0.01002,0.11453 l 0.183507,0.128493 c -0.0086,-0.09666 -0.01726,-0.193344 -0.02537,-0.290158 0.11385,-0.03184 0.227285,-0.0636 0.340736,-0.09543 0.0099,0.113137 0.01927,0.226205 0.0286,0.339442 -0.09727,0.02751 -0.194811,0.05537 -0.291887,0.0826 l 0.177535,0.124311 c 0.04283,-0.01199 0.08579,-0.02437 0.128843,-0.03616 0.0039,0.04469 0.0076,0.08976 0.0114,0.134358 l 0.182097,0.127506 c -0.0085,-0.102979 -0.01754,-0.205671 -0.02563,-0.309177 0.11385,-0.03184 0.22752,-0.06394 0.341567,-0.09602 0.0093,0.113932 0.01839,0.228072 0.02745,0.342292 -0.102626,0.02923 -0.205573,0.05863 -0.30812,0.0876 l 0.179247,0.12551 c 0.04741,-0.01331 0.09493,-0.02713 0.14257,-0.04077 0.0036,0.04989 0.0079,0.0996 0.01217,0.149123 l 0.182663,0.127901 c -0.0085,-0.108344 -0.0175,-0.216629 -0.02599,-0.324998 0.114245,-0.0324 0.22799,-0.06524 0.341977,-0.09783 0.0089,0.114571 0.01778,0.228943 0.02634,0.343274 -0.108146,0.03084 -0.215613,0.06208 -0.323554,0.0927 l 0.180099,0.126106 c 0.05218,-0.01507 0.104756,-0.03035 0.157219,-0.04529 0.004,0.05491 0.0082,0.109451 0.01235,0.164024 l 0.181524,0.127105 c -0.0081,-0.113211 -0.01752,-0.226299 -0.02569,-0.339379 0.11439,-0.03313 0.228909,-0.0659 0.342841,-0.09904 0.0085,0.115128 0.01701,0.230044 0.02562,0.344911 -0.112234,0.03249 -0.224427,0.06557 -0.336804,0.09769 l 0.179812,0.125906 c 0.05641,-0.0164 0.113066,-0.03298 0.169628,-0.04906 0.004,0.05903 0.0085,0.117888 0.01303,0.176965 l 0.355365,0.248829 c 0.06083,-0.01783 0.121785,-0.03602 0.182755,-0.05329 0.0047,0.06357 0.0092,0.127228 0.01384,0.190946 l 0.341996,0.239468 c 0.06436,-0.01869 0.128551,-0.03766 0.192796,-0.05675 0.0045,0.06728 0.0093,0.134534 0.01405,0.201581 l 0.332026,0.232488 c 0.06745,-0.01996 0.134821,-0.03999 0.202192,-0.05986 0.0046,0.07031 0.0095,0.140912 0.01433,0.211469 l 0.322647,0.225921 c 0.07024,-0.02099 0.140387,-0.04184 0.210622,-0.06282 0.0046,0.07341 0.0096,0.146861 0.01442,0.220397 l 0.315242,0.220736 c 0.07192,-0.02147 0.14435,-0.04331 0.21639,-0.06499 0.005,0.07549 0.009,0.15131 0.0141,0.226359 l 0.31099,0.217754 c 0.0735,-0.02194 0.14721,-0.04427 0.2208,-0.06646 0.004,0.07678 0.009,0.153846 0.0136,0.230621 l 0.30643,0.214563 c 0.0753,-0.0228 0.15109,-0.04563 0.22695,-0.06858 0.004,0.07912 0.009,0.158154 0.0135,0.236921 l 0.30131,0.210979 c 0.0769,-0.02335 0.1541,-0.04696 0.23085,-0.06992 0.004,0.0803 0.009,0.160757 0.0138,0.241245 l 0.29704,0.207991 c 0.0782,-0.02335 0.15655,-0.04739 0.2347,-0.07117 0.005,0.08175 0.009,0.163329 0.0137,0.245089 l 0.29419,0.205994 c 0.0791,-0.02392 0.15819,-0.04788 0.2373,-0.07183 0.005,0.08254 0.009,0.16502 0.0136,0.247539 l 0.29192,0.204406 c 0.0794,-0.02424 0.15916,-0.04805 0.23892,-0.07234 0.004,0.08327 0.009,0.166211 0.0137,0.249243 l 0.29106,0.203803 c 0.0796,-0.02407 0.15965,-0.04815 0.23943,-0.07247 0.004,0.08327 0.009,0.166547 0.0138,0.249779 l 0.29164,0.204205 c 0.0791,-0.02392 0.15819,-0.04788 0.23729,-0.07183 0.005,0.08271 0.009,0.165014 0.0137,0.247539 l 0.29419,0.205994 c 0.078,-0.02353 0.15656,-0.04737 0.23447,-0.07083 0.005,0.08126 0.009,0.163211 0.0136,0.244558 l 0.29761,0.208386 c 0.077,-0.02329 0.15422,-0.04642 0.23114,-0.06972 0.004,0.08024 0.009,0.160527 0.0133,0.24085 l 0.30158,0.211167 c 0.0753,-0.0228 0.15142,-0.0454 0.22701,-0.06804 0.004,0.07856 0.009,0.157418 0.0131,0.236188 l 0.30671,0.21476 c 0.0731,-0.0222 0.14723,-0.0438 0.22108,-0.0663 0.004,0.0766 0.008,0.15344 0.0128,0.23002 l 0.31126,0.21795 c 0.0722,-0.0213 0.14525,-0.0427 0.21752,-0.0642 0.005,0.0753 0.008,0.15045 0.0129,0.22556 l 0.31552,0.22093 c 0.0702,-0.021 0.14096,-0.0414 0.21177,-0.062 0.004,0.0732 0.009,0.14623 0.013,0.2194 l 0.32264,0.22592 c 0.0677,-0.0198 0.13572,-0.0394 0.20361,-0.0589 0.004,0.0701 0.009,0.14028 0.0126,0.21027 l 0.33231,0.23269 c 0.0646,-0.0185 0.12961,-0.0373 0.19446,-0.0561 0.004,0.067 0.009,0.13414 0.0127,0.20113 l 0.3417,0.23926 c 0.0614,-0.0174 0.12326,-0.035 0.18498,-0.0522 0.004,0.0632 0.008,0.12704 0.0122,0.1903 l 0.3545,0.24823 c 0.0572,-0.0158 0.11438,-0.0321 0.1717,-0.0484 0.004,0.059 0.008,0.11804 0.0118,0.17691 l 0.17981,0.1259 c -0.008,-0.11659 -0.0159,-0.23351 -0.024,-0.3503 0.1106,-0.0314 0.22157,-0.0627 0.3326,-0.0941 0.008,0.11882 0.0158,0.23725 0.0242,0.35604 -0.10936,0.0308 -0.21879,0.0611 -0.32768,0.0919 l 0.18208,0.1275 c 0.053,-0.0145 0.10527,-0.0292 0.15791,-0.0438 0.004,0.0539 0.007,0.10796 0.0111,0.16218 l 0.17923,0.1255 c -0.008,-0.1117 -0.0152,-0.223 -0.0231,-0.3346 0.11087,-0.0311 0.22145,-0.0619 0.33252,-0.0928 0.008,0.11827 0.0169,0.23631 0.0255,0.3548 -0.10491,0.0288 -0.20976,0.0573 -0.31445,0.087 l 0.1821,0.12751 c 0.0485,-0.013 0.0969,-0.0263 0.14502,-0.0394 0.004,0.0494 0.007,0.0991 0.0109,0.14855 l 0.17925,0.12551 c -0.008,-0.10667 -0.0157,-0.21374 -0.0237,-0.32044 0.10993,-0.0304 0.21964,-0.0606 0.32984,-0.0908 0.008,0.11827 0.0171,0.23601 0.0259,0.35416 -0.0994,0.0269 -0.19854,0.054 -0.29795,0.081 l 0.18351,0.12849 c 0.0424,-0.0114 0.0849,-0.0233 0.12703,-0.0348 0.004,0.0434 0.006,0.0871 0.01,0.13046 l 0.17356,0.12153 c 9.9e-4,-0.0154 0.003,-0.0302 0.001,-0.0455 -0.006,-0.0837 -0.0118,-0.16777 -0.0187,-0.25189 0.0633,-0.0172 0.12686,-0.0346 0.19022,-0.0518 0.0837,-0.0228 0.15731,-0.074 0.20723,-0.14533 0.002,-0.002 10e-4,-0.005 10e-4,-0.007 0.002,-10e-4 0.005,-0.002 0.007,-0.005 0.0497,-0.0709 0.0721,-0.15802 0.0653,-0.24455"
       style="fill:#2b2b29;fill-opacity:1;fill-rule:nonzero;stroke:none;stroke-width:0.0345507" />
    <path
       id="path35"
       d="m 123.0127,107.97647 -1.56485,-1.09572 c -0.13116,-0.0918 -0.31081,-0.0611 -0.40191,0.069 l -2.79084,3.98574 c -0.0911,0.13009 -0.0584,0.3093 0.0727,0.40114 l 1.56485,1.09572 c 0.13115,0.0918 0.31131,0.0616 0.4024,-0.0684 l 2.79084,-3.98573 c 0.0911,-0.1301 0.0579,-0.30982 -0.0732,-0.40166"
       style="fill:#2b2b29;fill-opacity:1;fill-rule:nonzero;stroke:none;stroke-width:0.0345507" />
    <path
       id="path36"
       d="m 88.833383,84.043855 -1.565407,-1.09611 c -0.130885,-0.09165 -0.310824,-0.06114 -0.401919,0.06896 l -2.790839,3.985731 c -0.09109,0.13009 -0.05814,0.309506 0.07274,0.401152 l 1.565408,1.096111 c 0.130876,0.09164 0.311029,0.06144 0.402118,-0.06865 l 2.79084,-3.985732 c 0.09109,-0.130097 0.05793,-0.309819 -0.07295,-0.401459"
       style="fill:#2b2b29;fill-opacity:1;fill-rule:nonzero;stroke:none;stroke-width:0.0345507" />
    <path
       id="path37"
       d="m 115.55921,102.75748 -1.56485,-1.09572 c -0.13173,-0.0922 -0.31139,-0.0615 -0.40248,0.0686 l -2.79084,3.98574 c -0.0911,0.13008 -0.0584,0.30931 0.0733,0.40154 l 1.56484,1.09572 c 0.13116,0.0918 0.31075,0.0612 0.40184,-0.0688 l 2.79084,-3.98573 c 0.0911,-0.1301 0.0585,-0.30942 -0.0727,-0.40126"
       style="fill:#2b2b29;fill-opacity:1;fill-rule:nonzero;stroke:none;stroke-width:0.0345507" />
    <path
       id="path38"
       d="M 96.287159,89.263045 94.72203,88.16713 c -0.131163,-0.09184 -0.310815,-0.06114 -0.40191,0.06896 l -2.79084,3.985732 c -0.09109,0.130089 -0.05843,0.309305 0.07274,0.401146 l 1.565129,1.095915 c 0.131163,0.09184 0.311028,0.06144 0.402118,-0.06865 l 2.790839,-3.985732 c 0.0911,-0.130097 0.05822,-0.309618 -0.07294,-0.401459"
       style="fill:#2b2b29;fill-opacity:1;fill-rule:nonzero;stroke:none;stroke-width:0.0345507" />
    <path
       id="path39"
       d="m 120.6863,96.647551 -0.89482,-0.626557 c -0.52464,-0.367359 -1.24456,-0.2439 -1.60811,0.275308 l -10.91826,15.592888 c -0.36347,0.51909 -0.23334,1.23793 0.29131,1.60529 l 0.89481,0.62656 c 0.52437,0.36716 1.24521,0.24419 1.60869,-0.27491 l 10.91825,-15.592883 c 0.36356,-0.519208 0.23249,-1.238532 -0.29187,-1.605696"
       style="fill:#2b2b29;fill-opacity:1;fill-rule:nonzero;stroke:none;stroke-width:0.0345507" />
    <path
       id="path40"
       d="m 120.35711,97.117688 -0.89482,-0.626558 c -0.0839,-0.05876 -0.17308,-0.102817 -0.26521,-0.132913 l -0.87255,1.246134 c 0.0252,0.01423 0.0512,0.02916 0.0763,0.04672 l 0.8948,0.626552 c 0.45835,0.320939 0.57237,0.950786 0.25478,1.40434 l -9.85905,14.080187 c 0.2014,-0.0642 0.38372,-0.19073 0.51324,-0.3757 l 10.40804,-14.864217 c 0.31764,-0.453639 0.20284,-1.083572 -0.25552,-1.404523"
       style="fill:#ffffff;fill-opacity:1;fill-rule:nonzero;stroke:none;stroke-width:0.0345507" />
    <path
       id="path41"
       d="m 122.49433,100.01438 -0.8951,-0.626757 c -0.52464,-0.367359 -1.24441,-0.244132 -1.60787,0.274936 l -8.94439,12.773921 c -0.36346,0.51907 -0.23332,1.23792 0.29132,1.60528 l 0.8951,0.62675 c 0.52464,0.36736 1.24465,0.24379 1.60811,-0.27528 l 8.94439,-12.77392 c 0.36346,-0.51907 0.23308,-1.23758 -0.29156,-1.60493"
       style="fill:#2b2b29;fill-opacity:1;fill-rule:nonzero;stroke:none;stroke-width:0.0345507" />
    <path
       id="path42"
       d="m 122.16537,100.48417 -0.8951,-0.626749 c -0.0219,-0.01537 -0.0448,-0.02879 -0.0675,-0.04216 l -0.89203,1.273949 0.79238,0.55483 c 0.45864,0.32114 0.57292,0.95122 0.25536,1.40474 l -7.88493,11.26086 c 0.20137,-0.0642 0.38353,-0.19048 0.51298,-0.37535 l 8.43417,-12.04524 c 0.31742,-0.45333 0.20251,-1.08432 -0.25528,-1.40486"
       style="fill:#ffffff;fill-opacity:1;fill-rule:nonzero;stroke:none;stroke-width:0.0345507" />
    <path
       id="path43"
       d="m 124.28256,103.40825 -0.89451,-0.62635 c -0.52465,-0.36736 -1.24509,-0.24439 -1.60878,0.27501 l -6.93155,9.89928 c -0.36353,0.51918 -0.23282,1.23842 0.29183,1.60578 l 0.89452,0.62634 c 0.52466,0.36737 1.24521,0.24421 1.60875,-0.27497 l 6.93154,-9.89928 c 0.3637,-0.5194 0.23286,-1.23844 -0.2918,-1.60581"
       style="fill:#2b2b29;fill-opacity:1;fill-rule:nonzero;stroke:none;stroke-width:0.0345507" />
    <path
       id="path44"
       d="m 123.9535,103.87819 -0.89451,-0.62635 c -0.0222,-0.0155 -0.0455,-0.0289 -0.0679,-0.043 l -0.89226,1.27429 0.79294,0.55523 c 0.45808,0.32075 0.57316,0.95088 0.25536,1.40475 l -5.87241,8.38667 c 0.20082,-0.0646 0.38298,-0.19089 0.51265,-0.37608 l 6.42123,-9.17046 c 0.31796,-0.45409 0.2035,-1.08391 -0.25514,-1.40506"
       style="fill:#ffffff;fill-opacity:1;fill-rule:nonzero;stroke:none;stroke-width:0.0345507" />
    <path
       id="path45"
       d="M 99.604435,81.885871 98.709921,81.259526 C 98.18527,80.892161 97.464778,81.015219 97.101224,81.534427 L 86.182968,97.127313 c -0.363475,0.519096 -0.232763,1.238332 0.291887,1.605696 l 0.894515,0.626346 c 0.524937,0.367565 1.245217,0.2442 1.608692,-0.274896 L 99.896319,83.491573 c 0.363551,-0.519208 0.233051,-1.238137 -0.291884,-1.605702"
       style="fill:#2b2b29;fill-opacity:1;fill-rule:nonzero;stroke:none;stroke-width:0.0345507" />
    <path
       id="path46"
       d="m 99.275241,82.356008 -0.894514,-0.626346 c -0.08394,-0.05877 -0.173658,-0.103224 -0.266074,-0.133521 l -0.872552,1.246134 c 0.02602,0.0148 0.05214,0.02979 0.07712,0.04729 l 0.894235,0.626151 c 0.458349,0.320939 0.572936,0.951187 0.255354,1.404741 L 88.609755,99.00065 c 0.201401,-0.06419 0.383721,-0.190742 0.513234,-0.375707 L 99.531031,83.76072 c 0.317641,-0.453639 0.202567,-1.083767 -0.255798,-1.404718"
       style="fill:#ffffff;fill-opacity:1;fill-rule:nonzero;stroke:none;stroke-width:0.0345507" />
    <path
       id="path47"
       d="m 95.822847,81.338805 -0.894809,-0.626552 c -0.524929,-0.36756 -1.244977,-0.244528 -1.608432,0.27454 l -8.944395,12.77392 c -0.363458,0.519072 -0.233038,1.238116 0.291891,1.605675 l 0.894809,0.626552 c 0.524642,0.367358 1.244649,0.243791 1.608108,-0.275281 l 8.944395,-12.773921 c 0.363455,-0.519067 0.233075,-1.237575 -0.291567,-1.604933"
       style="fill:#2b2b29;fill-opacity:1;fill-rule:nonzero;stroke:none;stroke-width:0.0345507" />
    <path
       id="path48"
       d="m 95.49389,81.808603 -0.894809,-0.626552 c -0.0222,-0.01554 -0.04536,-0.0292 -0.06811,-0.04256 l -0.892028,1.273948 0.792947,0.555228 c 0.458078,0.32075 0.572637,0.951021 0.255075,1.404547 l -7.884933,11.260851 c 0.201091,-0.06436 0.38325,-0.190681 0.512695,-0.375547 l 8.434171,-12.045244 c 0.317424,-0.453329 0.203082,-1.08391 -0.254988,-1.404654"
       style="fill:#ffffff;fill-opacity:1;fill-rule:nonzero;stroke:none;stroke-width:0.0345507" />
    <path
       id="path49"
       d="m 92.021744,80.81898 -0.895088,-0.626747 c -0.52465,-0.367364 -1.244796,-0.244191 -1.608488,0.275214 l -6.931548,9.899277 c -0.363532,0.519178 -0.233107,1.238213 0.291544,1.605578 l 0.895087,0.626747 c 0.524659,0.36737 1.244652,0.243804 1.608185,-0.275374 l 6.931548,-9.899277 c 0.363692,-0.519405 0.233419,-1.238048 -0.29124,-1.605418"
       style="fill:#2b2b29;fill-opacity:1;fill-rule:nonzero;stroke:none;stroke-width:0.0345507" />
    <path
       id="path50"
       d="m 91.692689,81.28892 -0.895088,-0.626747 c -0.0222,-0.01554 -0.04496,-0.02855 -0.06724,-0.04257 l -0.892266,1.274287 0.792382,0.554832 c 0.458357,0.320945 0.573439,0.95108 0.25564,1.404944 l -5.872412,8.386673 c 0.20081,-0.06457 0.382983,-0.190893 0.512652,-0.376078 L 91.947579,82.6938 c 0.317957,-0.45409 0.203221,-1.084108 -0.254857,-1.404857"
       style="fill:#ffffff;fill-opacity:1;fill-rule:nonzero;stroke:none;stroke-width:0.0345507" />
  </g>
</svg>
